<svg width="23" height="24" viewBox="0 0 23 24" fill="none" xmlns="http://www.w3.org/2000/svg">
<path d="M13 1.5V2.34375C16.375 2.90625 19 5.85938 19 9.375V10.9688C19 13.0781 19.7031 15.1406 21.0156 16.8281L21.7188 17.6719C22 18.0469 22.0469 18.5156 21.8594 18.8906C21.6719 19.2656 21.2969 19.5 20.875 19.5H2.125C1.65625 19.5 1.28125 19.2656 1.09375 18.8906C0.90625 18.5156 0.953125 18.0469 1.23438 17.6719L1.9375 16.8281C3.25 15.1406 4 13.0781 4 10.9688V9.375C4 5.85938 6.57812 2.90625 10 2.34375V1.5C10 0.703125 10.6562 0 11.5 0C12.2969 0 13 0.703125 13 1.5ZM11.125 4.5C8.40625 4.5 6.25 6.70312 6.25 9.375V10.9688C6.25 13.2188 5.59375 15.375 4.375 17.25H18.5781C17.3594 15.375 16.75 13.2188 16.75 10.9688V9.375C16.75 6.70312 14.5469 4.5 11.875 4.5H11.125ZM14.5 21C14.5 21.7969 14.1719 22.5938 13.6094 23.1562C13.0469 23.7188 12.25 24 11.5 24C10.7031 24 9.90625 23.7188 9.34375 23.1562C8.78125 22.5938 8.5 21.7969 8.5 21H14.5Z" fill="#084384"/>
</svg>
