<svg width="16" height="19" viewBox="0 0 16 19" fill="none" xmlns="http://www.w3.org/2000/svg">
<path d="M3.9375 4.1875C3.9375 2.04297 5.69531 0.25 7.875 0.25C10.0195 0.25 11.8125 2.04297 11.8125 4.1875V5.875H14.0625C14.9766 5.875 15.75 6.64844 15.75 7.5625V14.875C15.75 16.7383 14.2383 18.25 12.375 18.25H3.375C1.47656 18.25 0 16.7383 0 14.875V7.5625C0 6.64844 0.738281 5.875 1.6875 5.875H3.9375V4.1875ZM5.625 5.875H10.125V4.1875C10.125 2.95703 9.10547 1.9375 7.875 1.9375C6.60938 1.9375 5.625 2.95703 5.625 4.1875V5.875ZM4.78125 9.25C5.23828 9.25 5.625 8.89844 5.625 8.40625C5.625 7.94922 5.23828 7.5625 4.78125 7.5625C4.28906 7.5625 3.9375 7.94922 3.9375 8.40625C3.9375 8.89844 4.28906 9.25 4.78125 9.25ZM10.9688 7.5625C10.4766 7.5625 10.125 7.94922 10.125 8.40625C10.125 8.89844 10.4766 9.25 10.9688 9.25C11.4258 9.25 11.8125 8.89844 11.8125 8.40625C11.8125 7.94922 11.4258 7.5625 10.9688 7.5625Z" fill="white"/>
</svg>
