<svg width="27" height="24" viewBox="0 0 27 24" fill="none" xmlns="http://www.w3.org/2000/svg">
<path d="M6 4.5C6 2.01562 7.96875 0 10.5 0C12.9844 0 15 2.01562 15 4.5V7.5H18C19.6406 7.5 21 8.85938 21 10.5H18.75C18.75 10.125 18.375 9.75 18 9.75H3C2.57812 9.75 2.25 10.125 2.25 10.5V19.5C2.25 19.9219 2.57812 20.25 3 20.25H7.5V22.5H3C1.3125 22.5 0 21.1875 0 19.5V10.5C0 8.85938 1.3125 7.5 3 7.5H6V4.5ZM8.25 7.5H12.75V4.5C12.75 3.28125 11.7188 2.25 10.5 2.25C9.23438 2.25 8.25 3.28125 8.25 4.5V7.5ZM24 12C25.6406 12 27 13.3594 27 15V21C27 22.6875 25.6406 24 24 24H12C10.3125 24 9 22.6875 9 21V15C9 13.3594 10.3125 12 12 12H24ZM15 15.75C15 15.375 14.625 15 14.25 15C13.8281 15 13.5 15.375 13.5 15.75V16.5C13.5 18.9844 15.4688 21 18 21C20.4844 21 22.5 18.9844 22.5 16.5V15.75C22.5 15.375 22.125 15 21.75 15C21.3281 15 21 15.375 21 15.75V16.5C21 18.1875 19.6406 19.5 18 19.5C16.3125 19.5 15 18.1875 15 16.5V15.75Z" fill="#084384"/>
</svg>
