<svg width="27" height="18" viewBox="0 0 27 18" fill="none" xmlns="http://www.w3.org/2000/svg">
<path d="M21.375 9.75C21.9844 9.75 22.5 10.2656 22.5 10.875C22.5 11.5312 21.9844 12 21.375 12H13.125C12.4688 12 12 11.5312 12 10.875C12 10.2656 12.4688 9.75 13.125 9.75H21.375ZM12 6.375C12 5.76562 12.4688 5.25 13.125 5.25H21.375C21.9844 5.25 22.5 5.76562 22.5 6.375C22.5 7.03125 21.9844 7.5 21.375 7.5H13.125C12.4688 7.5 12 7.03125 12 6.375ZM8.4375 4.82812C8.71875 4.875 9.1875 4.96875 9.42188 5.01562C9.89062 5.15625 10.2188 5.67188 10.0781 6.1875C9.9375 6.65625 9.42188 6.98438 8.90625 6.84375C8.76562 6.79688 8.10938 6.65625 7.92188 6.60938C7.3125 6.5625 6.84375 6.60938 6.5625 6.75C6.28125 6.89062 6.1875 7.03125 6.1875 7.125C6.14062 7.3125 6.1875 7.35938 6.1875 7.35938C6.1875 7.40625 6.23438 7.45312 6.375 7.54688C6.65625 7.73438 7.07812 7.875 7.73438 8.0625H7.78125C8.34375 8.25 9.14062 8.48438 9.70312 8.90625C9.98438 9.14062 10.3125 9.42188 10.5 9.84375C10.6875 10.2656 10.6875 10.7344 10.6406 11.25C10.4531 12.1406 9.89062 12.75 9.14062 13.0312C8.90625 13.125 8.67188 13.2188 8.4375 13.2656V13.5C8.4375 14.0625 8.01562 14.4844 7.45312 14.4844C6.9375 14.4844 6.51562 14.0625 6.51562 13.5V13.2188C6.09375 13.125 5.48438 12.9375 5.15625 12.7969C5.0625 12.75 4.96875 12.75 4.92188 12.7031C4.45312 12.5625 4.17188 12.0469 4.35938 11.5312C4.5 11.0625 5.01562 10.7812 5.53125 10.9219C5.625 10.9688 5.71875 11.0156 5.8125 11.0625C6.28125 11.2031 6.75 11.3438 7.03125 11.3906C7.64062 11.4844 8.10938 11.4375 8.39062 11.3438C8.67188 11.2031 8.76562 11.0625 8.76562 10.9219C8.8125 10.7344 8.76562 10.6406 8.76562 10.5938C8.76562 10.5469 8.71875 10.5 8.57812 10.4062C8.29688 10.2188 7.875 10.0781 7.21875 9.84375H7.125C6.5625 9.65625 5.85938 9.46875 5.29688 9.09375C5.01562 8.85938 4.6875 8.57812 4.5 8.15625C4.3125 7.73438 4.26562 7.26562 4.3125 6.79688C4.5 5.95312 5.10938 5.34375 5.8125 5.0625C6 4.92188 6.28125 4.875 6.51562 4.78125V4.5C6.51562 3.98438 6.9375 3.5625 7.5 3.5625C8.01562 3.5625 8.4375 3.98438 8.4375 4.5V4.82812ZM0 3C0 1.35938 1.3125 0 3 0H24C25.6406 0 27 1.35938 27 3V15C27 16.6875 25.6406 18 24 18H3C1.3125 18 0 16.6875 0 15V3ZM2.25 3V15C2.25 15.4219 2.57812 15.75 3 15.75H24C24.375 15.75 24.75 15.4219 24.75 15V3C24.75 2.625 24.375 2.25 24 2.25H3C2.57812 2.25 2.25 2.625 2.25 3Z" fill="#084384"/>
</svg>
