<svg width="53" height="53" viewBox="0 0 53 53" fill="none" xmlns="http://www.w3.org/2000/svg">
<g id="fi_6001283">
<g id="Layer 50">
<path id="Vector" d="M26.5049 50.5156C39.7683 50.5156 50.5205 39.7635 50.5205 26.5C50.5205 13.2365 39.7683 2.48438 26.5049 2.48438C13.2414 2.48438 2.48926 13.2365 2.48926 26.5C2.48926 39.7635 13.2414 50.5156 26.5049 50.5156Z" fill="#FFE477"/>
<path id="Vector_2" d="M26.5049 47.2031C37.9389 47.2031 47.208 37.934 47.208 26.5C47.208 15.066 37.9389 5.79688 26.5049 5.79688C15.0709 5.79688 5.80176 15.066 5.80176 26.5C5.80176 37.934 15.0709 47.2031 26.5049 47.2031Z" fill="#FFDA44"/>
<path id="Vector_3" d="M26.6249 2.48438C26.8931 3.57847 27.0841 4.69007 27.1963 5.81095C31.0198 5.93838 34.7331 7.12269 37.9243 9.23244C41.1155 11.3422 43.6598 14.2949 45.2747 17.7629C46.8896 21.2308 47.5121 25.0785 47.073 28.8787C46.634 32.679 45.1505 36.2833 42.7873 39.2917C40.4242 42.3 37.2737 44.5948 33.6855 45.9213C30.0972 47.2478 26.2117 47.5541 22.4599 46.8063C18.7082 46.0586 15.237 44.2859 12.4315 41.6851C9.62607 39.0842 7.59611 35.757 6.56691 32.0725C5.48996 32.2198 4.40433 32.2948 3.31734 32.2969C3.27677 32.2969 3.23453 32.2969 3.19727 32.2969C4.28247 36.6595 6.57042 40.63 9.80081 43.7565C13.0312 46.883 17.0743 49.04 21.4701 49.9821C25.8658 50.9242 30.4378 50.6135 34.6657 49.0854C38.8937 47.5573 42.6078 44.8732 45.3855 41.3384C48.1633 37.8037 49.8931 33.5602 50.3781 29.0909C50.8632 24.6215 50.084 20.1057 48.1292 16.0574C46.1745 12.009 43.1227 8.59055 39.321 6.19104C35.5193 3.79152 31.1205 2.50726 26.6249 2.48438Z" fill="#FFDE55"/>
<g id="Group">
<path id="Vector_4" d="M26.5047 17.1305L32.9459 23.5717L36.4596 20.0588L26.5047 10.1039L16.5498 20.0588L20.0635 23.5717L26.5047 17.1305Z" fill="#F1F2F2"/>
<path id="Vector_5" d="M26.5047 35.8694L20.0635 29.4282L16.5498 32.9411L26.5047 42.896L36.4596 32.9411L32.9459 29.4282L26.5047 35.8694Z" fill="#F1F2F2"/>
<path id="Vector_6" d="M22.9863 26.5L26.4998 22.9866L30.0132 26.5L26.4998 30.0134L22.9863 26.5Z" fill="#F1F2F2"/>
<path id="Vector_7" d="M35.8682 26.5016L39.3816 22.9882L42.895 26.5016L39.3816 30.015L35.8682 26.5016Z" fill="#F1F2F2"/>
<path id="Vector_8" d="M10.1055 26.4984L13.6189 22.985L17.1323 26.4984L13.6189 30.0118L10.1055 26.4984Z" fill="#F1F2F2"/>
</g>
</g>
</g>
</svg>
