<svg width="53" height="53" viewBox="0 0 53 53" fill="none" xmlns="http://www.w3.org/2000/svg">
<g id="fi_174861">
<path id="Vector" d="M44.4007 13.693C44.4905 12.9638 44.5374 12.2213 44.5374 11.4678C44.5374 5.13437 39.4031 0 33.0696 0H13.9045C12.699 0 11.6697 0.870566 11.4697 2.05934L4.40789 44.0323C4.15448 45.5385 5.31552 46.911 6.84268 46.911H13.8518C15.0574 46.911 16.106 46.0411 16.3059 44.8522C16.3059 44.8522 16.3176 44.7825 16.3387 44.6571H16.3388L15.362 50.4628C15.1388 51.7902 16.1621 53 17.5081 53H23.6401C24.7026 53 25.6099 52.2326 25.786 51.1849L27.5281 40.8312C27.8284 39.0464 29.3736 37.7395 31.1833 37.7395H32.7943C41.5444 37.7395 48.6377 30.6461 48.6377 21.896C48.6377 18.5101 46.9641 15.5172 44.4007 13.693Z" fill="#002987"/>
<path id="Vector_2" d="M44.4004 13.693C43.3037 22.6139 35.7005 29.5216 26.4833 29.5216H21.1351C19.928 29.5216 18.8855 30.3256 18.5585 31.4624L15.3618 50.4626C15.1385 51.7901 16.1617 52.9999 17.5077 52.9999H23.6397C24.7023 52.9999 25.6095 52.2326 25.7857 51.1848L27.5277 40.8312C27.828 39.0464 29.3732 37.7395 31.183 37.7395H32.7939C41.5441 37.7395 48.6374 30.6461 48.6374 21.896C48.6374 18.5101 46.9637 15.5171 44.4004 13.693Z" fill="#0085CC"/>
<path id="Vector_3" d="M21.1353 29.5216H26.4834C35.7008 29.5216 43.304 22.6139 44.4005 13.6932C42.7559 12.5228 40.746 11.8322 38.5737 11.8322H24.6146C23.0253 11.8322 21.6683 12.9798 21.4045 14.5471L18.5586 31.4623C18.8856 30.3255 19.9282 29.5216 21.1353 29.5216Z" fill="#00186A"/>
</g>
</svg>
