<svg width="116" height="37" viewBox="0 0 116 37" fill="none" xmlns="http://www.w3.org/2000/svg">
<g id="Visa">
<path id="visa-logo" fill-rule="evenodd" clip-rule="evenodd" d="M28.9846 36.7119H18.9513L11.4275 8.0084C11.0704 6.68803 10.3121 5.52076 9.19679 4.97061C6.41329 3.58805 3.34606 2.48775 0 1.93281V0.827727H16.1629C18.3936 0.827727 20.0666 2.48775 20.3454 4.41567L24.2492 25.1205L34.2776 0.827727H44.0321L28.9846 36.7119ZM49.6086 36.7119H40.133L47.9356 0.827727H57.4112L49.6086 36.7119ZM69.6705 10.7686C69.9494 8.83591 71.6224 7.73082 73.5743 7.73082C76.6415 7.45335 79.9827 8.00829 82.7711 9.38606L84.4441 1.66002C81.6557 0.554935 78.5885 0 75.805 0C66.6082 0 59.9161 4.9705 59.9161 11.8689C59.9161 17.1169 64.6563 19.8724 68.0024 21.5324C71.6224 23.1877 73.0166 24.2928 72.7378 25.948C72.7378 28.4309 69.9494 29.536 67.1659 29.536C63.8198 29.536 60.4738 28.7083 57.4114 27.3258L55.7384 35.0566C59.0845 36.4344 62.7045 36.9893 66.0505 36.9893C76.3627 37.262 82.7711 32.2963 82.7711 24.8429C82.7711 15.4569 69.6705 14.9067 69.6705 10.7686ZM115.933 36.7119L108.41 0.827727H100.328C98.6553 0.827727 96.9822 1.93281 96.4246 3.58805L82.4924 36.7119H92.2469L94.1938 31.4688H106.179L107.294 36.7119H115.933ZM101.723 10.4911L104.506 24.0153H96.7035L101.723 10.4911Z" fill="#172B85"/>
</g>
</svg>
