<svg width="53" height="53" viewBox="0 0 53 53" fill="none" xmlns="http://www.w3.org/2000/svg">
<g id="fi_825482" clip-path="url(#clip0_257_5941)">
<path id="Vector" d="M53 26.5C53 30.5973 52.0698 34.477 50.4095 37.9404C46.1403 46.8488 37.0383 53 26.5 53C16.2396 53 7.34102 47.169 2.93767 38.6392C1.06 35.0027 0 30.8742 0 26.5C0 25.5168 0.053 24.5466 0.157965 23.5915C1.60625 10.3242 12.8476 0 26.5 0C37.1379 0 46.3123 6.26911 50.5306 15.3138C52.1152 18.7122 53 22.5034 53 26.5Z" fill="#353535"/>
<g id="Group">
<path id="Vector_2" d="M53.0001 26.4999C53.0001 30.5972 52.0699 34.477 50.4096 37.9404C50.2084 38.0388 50.0019 38.1318 49.7899 38.2183C48.1165 38.903 46.3568 39.1594 44.5613 39.2351C42.5819 39.3172 40.6209 39.1993 38.6978 38.6888C37.4615 38.3599 36.3106 37.8462 35.2787 37.0772C35.1035 36.9474 35.0602 36.8241 35.1057 36.6153C35.9569 32.6987 36.8017 28.781 37.6486 24.8634C38.3073 21.8132 38.9704 18.764 39.615 15.7106C39.6821 15.3904 39.7956 15.2801 40.1223 15.3039L41.4116 15.3061C41.6323 15.2963 41.6896 15.3612 41.6874 15.5819C41.6766 16.9102 41.682 18.2385 41.682 19.5677C41.682 23.1533 41.6798 26.7378 41.683 30.3235C41.6841 30.9119 41.7404 31.4938 42.014 32.0314C42.3255 32.6447 42.8274 32.9789 43.5099 32.9854C44.1913 32.9919 44.704 32.6706 45.0242 32.0617C45.3152 31.5101 45.3671 30.9098 45.3671 30.2998C45.366 25.4248 45.3692 20.55 45.3605 15.675C45.3595 15.3938 45.407 15.3018 45.7175 15.303C47.3215 15.3117 48.9267 15.3149 50.5307 15.3137C52.1153 18.7122 53.0001 22.5033 53.0001 26.4999Z" fill="#FEDE00"/>
<path id="Vector_3" d="M38.6808 15.3071C36.699 15.3168 31.4574 15.3274 30.9798 15.3069C30.7512 15.297 30.6685 15.3558 30.6371 15.6009C30.3863 17.5562 30.1156 19.5088 29.8524 21.4624C29.5698 23.5612 29.289 25.6604 29.0066 27.7593C28.9086 28.4874 28.8081 29.2152 28.7086 29.9433C28.6446 29.8805 28.6246 29.8176 28.6149 29.753C28.4557 28.6816 28.2971 27.6102 28.1397 26.5385C27.6047 22.8988 27.0683 19.2592 26.54 15.6186C26.5061 15.3853 26.438 15.3031 26.1812 15.3041C23.2012 15.3157 20.2211 15.3154 17.241 15.3048C16.9763 15.3039 16.9009 15.3845 16.8651 15.6373C16.5913 17.5697 16.301 19.4997 16.016 21.4307C15.6741 23.7474 15.3328 26.0642 14.9904 28.381C14.9136 28.9007 14.8329 29.4197 14.7538 29.939C14.6856 29.8524 14.6658 29.7686 14.6545 29.684C14.4521 28.1653 14.2523 26.6461 14.0489 25.1276C13.6226 21.9452 13.1927 18.7634 12.7707 15.5805C12.7439 15.3784 12.6845 15.3055 12.4657 15.3063C9.88616 15.315 7.30676 15.3144 4.72735 15.307C4.50459 15.3064 4.449 15.3445 4.49993 15.577C5.21792 18.8647 5.92638 22.1545 6.63743 25.4439C7.56679 29.7432 8.49801 34.0419 9.42137 38.3423C9.47013 38.5694 9.54394 38.65 9.79476 38.6489C12.9311 38.6376 16.0676 38.6373 19.2039 38.649C19.476 38.65 19.5406 38.5577 19.5739 38.3139C19.8257 36.4675 20.0894 34.6228 20.3527 32.778C20.7181 30.2181 21.086 27.6585 21.4537 25.0988C21.528 24.5816 21.6057 24.0649 21.6819 23.5479C21.9082 24.7562 22.0846 25.9616 22.257 27.1678C22.7909 30.9064 23.3248 34.6449 23.8519 38.3843C23.8815 38.5946 23.9595 38.6477 24.1674 38.6468C26.0238 38.6378 27.8802 38.6416 29.7367 38.6416C31.0558 38.6416 32.3748 38.6429 33.6939 38.6388C33.7848 38.6385 33.9117 38.7024 33.9462 38.5281C34.0934 37.7825 34.2921 37.0475 34.4064 36.2951C34.4253 36.2409 34.45 36.1881 34.462 36.1323C35.9421 29.2834 37.4204 22.4341 38.9043 15.5861C38.9516 15.3667 38.9191 15.3058 38.6808 15.3071Z" fill="#FEDE00"/>
</g>
<path id="Vector_4" d="M34.406 36.2951C33.4055 35.2567 32.8499 33.9994 32.5902 32.5976C32.4636 31.9142 32.4305 31.2224 32.4302 30.5296C32.4278 25.5787 32.419 15.4436 32.4141 15.327L38.6806 15.3073C38.9189 15.306 38.9513 15.3669 38.9039 15.5862C37.4199 22.4343 35.9416 29.2835 34.4616 36.1324C34.4496 36.1879 34.4249 36.2408 34.406 36.2951Z" fill="#FDFDFC"/>
<g id="Group_2">
<path id="Vector_5" d="M3.0815 38.6457C3.03388 38.6425 2.98626 38.6403 2.93875 38.6392C1.06098 35.0027 0.000976562 30.8742 0.000976562 26.5C0.000976562 25.5168 0.0539766 24.5466 0.158941 23.5916C0.78842 26.553 1.418 29.5146 2.04634 32.475C2.46382 34.4413 2.87809 36.4077 3.3054 38.3709C3.35509 38.6025 3.31182 38.6608 3.0815 38.6457Z" fill="#FEDE00"/>
<path id="Vector_6" d="M6.39592 38.6415C5.73507 38.6415 5.73424 38.6417 5.59885 38.0039C4.07758 30.8389 2.55652 23.6739 1.03505 16.5091C0.968179 16.1942 0.90286 15.8789 0.826776 15.5664C0.783714 15.3897 0.793444 15.2928 1.02097 15.307C1.32262 15.3259 1.62716 15.3238 1.92901 15.3072C2.11389 15.2969 2.18169 15.3641 2.21813 15.539C2.54617 17.1143 2.88177 18.6881 3.21602 20.2622C4.24093 25.0898 5.26615 29.9172 6.29178 34.7447C6.55129 35.966 6.81081 37.1873 7.07467 38.4075C7.11007 38.5712 7.10624 38.6684 6.89372 38.6452C6.72955 38.6272 6.56206 38.6415 6.39592 38.6415Z" fill="#FEDE00"/>
</g>
</g>
<defs>
<clipPath id="clip0_257_5941">
<rect width="53" height="53" fill="white"/>
</clipPath>
</defs>
</svg>
