<svg width="21" height="18" viewBox="0 0 21 18" fill="none" xmlns="http://www.w3.org/2000/svg">
<path d="M21 1.125C21 0.515625 20.5312 0 19.875 0H1.125C0.515625 0 0 0.515625 0 1.125C0 1.78125 0.515625 2.25 1.125 2.25H19.875C20.5312 2.25 21 1.78125 21 1.125ZM21 8.625C21 8.01562 20.5312 7.5 19.875 7.5H7.125C6.51562 7.5 6 8.01562 6 8.625C6 9.28125 6.51562 9.75 7.125 9.75H19.875C20.5312 9.75 21 9.28125 21 8.625ZM13.125 17.25H19.875C20.5312 17.25 21 16.7812 21 16.125C21 15.5156 20.5312 15 19.875 15H13.125C12.5156 15 12 15.5156 12 16.125C12 16.7812 12.5156 17.25 13.125 17.25Z" fill="#084384"/>
</svg>
