<svg width="12" height="14" viewBox="0 0 12 14" fill="none" xmlns="http://www.w3.org/2000/svg">
<path d="M11.25 12.5H0.75C0.3125 12.5 0 12.8125 0 13.25C0 13.6875 0.3125 14 0.75 14H11.25C11.6562 14 12 13.6875 12 13.25C12 12.8438 11.6562 12.5 11.25 12.5ZM9.4375 5.5L6.75 8.375V0.78125C6.75 0.34375 6.40625 0 6 0C5.5625 0 5.25 0.34375 5.25 0.78125V8.375L2.53125 5.5C2.375 5.34375 2.1875 5.28125 2 5.28125C1.8125 5.28125 1.625 5.34375 1.46875 5.46875C1.15625 5.75 1.15625 6.21875 1.4375 6.53125L5.4375 10.7812C5.71875 11.0938 6.25 11.0938 6.53125 10.7812L10.5312 6.53125C10.8125 6.21875 10.8125 5.75 10.5 5.46875C10.1875 5.1875 9.71875 5.1875 9.4375 5.5Z" fill="#036666"/>
</svg>
