<svg width="25" height="25" viewBox="0 0 25 25" fill="none" xmlns="http://www.w3.org/2000/svg">
<path d="M24.2967 12.525C24.2967 19.0468 19.0149 24.2827 12.539 24.2827C6.01711 24.2827 0.78125 19.0468 0.78125 12.525C0.78125 6.04904 6.01711 0.767258 12.539 0.767258C19.0149 0.767258 24.2967 6.04904 24.2967 12.525ZM5.00668 6.60019C3.72068 8.25362 2.98582 10.3204 2.98582 12.525C2.98582 17.8068 7.25718 22.0781 12.539 22.0781C14.7435 22.0781 16.8103 21.3433 18.4638 20.0573L5.00668 6.60019ZM22.0921 12.525C22.0921 7.28912 17.7748 2.97183 12.539 2.97183C10.2885 2.97183 8.22168 3.75262 6.56825 5.03862L20.0253 18.4957C21.3113 16.8423 22.0921 14.7755 22.0921 12.525Z" fill="#15CAB8"/>
</svg>
