<svg width="29" height="24" viewBox="0 0 29 24" fill="none" xmlns="http://www.w3.org/2000/svg">
<path d="M4.75082 0.545244C5.23498 0.545244 5.67513 0.941378 5.76316 1.42554L5.85119 1.95372H24.3374C25.2618 1.95372 25.966 2.87803 25.7019 3.75833L24.1614 9.21618C23.5892 9.08413 22.973 8.9961 22.3568 8.9961C22.2247 8.9961 22.1367 8.9961 22.0487 9.04012L23.4131 4.06644H6.29134L7.61179 11.1088H17.031C16.3708 11.725 15.8426 12.4293 15.4464 13.2215H8.00792L8.40406 15.3342H14.6982C14.6102 15.8184 14.5661 16.3026 14.5661 16.7427C14.5661 17.0068 14.6102 17.2269 14.6102 17.447H7.52376C7.03959 17.447 6.59945 17.0948 6.51142 16.6107L3.87052 2.65796H1.58175C0.96554 2.65796 0.525391 2.21781 0.525391 1.6016C0.525391 1.02941 0.96554 0.545244 1.58175 0.545244H4.75082ZM6.1593 20.9682C6.1593 19.8238 7.08361 18.8554 8.27201 18.8554C9.4164 18.8554 10.3847 19.8238 10.3847 20.9682C10.3847 22.1566 9.4164 23.0809 8.27201 23.0809C7.08361 23.0809 6.1593 22.1566 6.1593 20.9682ZM16.0186 16.7427C16.0186 13.2655 18.8356 10.4046 22.3568 10.4046C25.834 10.4046 28.6949 13.2655 28.6949 16.7427C28.6949 20.2639 25.834 23.0809 22.3568 23.0809C18.8356 23.0809 16.0186 20.2639 16.0186 16.7427ZM24.9537 15.1582C25.2177 14.8941 25.2177 14.4099 24.9537 14.1458C24.6896 13.8818 24.2054 13.8818 23.9413 14.1458L22.3568 15.7744L20.7282 14.1458C20.4641 13.8818 19.98 13.8818 19.7159 14.1458C19.4518 14.4099 19.4518 14.8941 19.7159 15.1582L21.3444 16.7427L19.7159 18.3713C19.4518 18.6354 19.4518 19.1195 19.7159 19.3836C19.98 19.6477 20.4641 19.6477 20.7282 19.3836L22.3568 17.7551L23.9413 19.3836C24.2054 19.6477 24.6896 19.6477 24.9537 19.3836C25.2177 19.1195 25.2177 18.6354 24.9537 18.3713L23.3251 16.7427L24.9537 15.1582Z" fill="#15CAB8"/>
</svg>
