<svg width="22" height="21" viewBox="0 0 22 21" fill="none" xmlns="http://www.w3.org/2000/svg">
<path d="M10.5859 16.9171C10.1641 17.3859 9.46094 17.3859 9.03906 16.9171L6.41406 14.2921C5.94531 13.8703 5.94531 13.1671 6.41406 12.6984C6.83594 12.2765 7.53906 12.2765 7.96094 12.6984L9.83594 14.5734L14.2891 10.0734C14.7109 9.65152 15.4141 9.65152 15.8359 10.0734C16.3047 10.5421 16.3047 11.2453 15.8359 11.6671L10.5859 16.9171ZM21.5547 6.18277C21.7422 6.55777 21.8359 6.97964 21.8359 7.40152V17.9953C21.8359 19.6828 20.4766 20.9953 18.8359 20.9953H3.83594C2.14844 20.9953 0.835938 19.6828 0.835938 17.9953V7.40152C0.835938 6.97964 0.882812 6.55777 1.07031 6.18277L3.03906 1.82339C3.50781 0.698395 4.58594 -0.00473022 5.75781 -0.00473022H16.8672C18.0391 -0.00473022 19.1172 0.698395 19.5859 1.82339L21.5547 6.18277ZM12.4609 5.99527H19.0234L17.5703 2.71402C17.4297 2.43277 17.1484 2.24527 16.8672 2.24527H12.4609V5.99527ZM3.08594 17.9953C3.08594 18.4171 3.41406 18.7453 3.83594 18.7453H18.8359C19.2109 18.7453 19.5859 18.4171 19.5859 17.9953V8.24527H3.08594V17.9953ZM10.2109 2.24527H5.75781C5.47656 2.24527 5.19531 2.43277 5.05469 2.71402L3.60156 5.99527H10.2109V2.24527Z" fill="#15CAB8"/>
</svg>
