<svg width="24" height="24" viewBox="0 0 24 24" fill="none" xmlns="http://www.w3.org/2000/svg">
<path d="M22.2244 15.7061H4.22229L7.4794 12.2289C7.87553 11.7887 7.87553 11.1285 7.43538 10.7324C6.99523 10.3362 6.33501 10.3362 5.93887 10.7764L1.00921 16.0582C0.613073 16.4543 0.613073 17.1145 1.00921 17.5107L5.93887 22.7924C6.15895 23.0125 6.42304 23.1006 6.73114 23.1006C6.95122 23.1006 7.21531 23.0125 7.43538 22.8365C7.87553 22.4403 7.87553 21.7801 7.4794 21.34L4.22229 17.8188H22.2244C22.7966 17.8188 23.2807 17.3786 23.2807 16.7624C23.2807 16.1902 22.7966 15.7061 22.2244 15.7061ZM1.80147 7.95943H19.7595L16.5024 11.4806C16.1063 11.9208 16.1063 12.581 16.5465 12.9771C16.9866 13.3733 17.6468 13.3733 18.043 12.9331L22.9726 7.65133C23.3688 7.25519 23.3688 6.59497 22.9726 6.19884L18.043 0.917048C17.8229 0.696974 17.5588 0.564929 17.2947 0.564929C17.0306 0.564929 16.7665 0.696974 16.5465 0.873033C16.1063 1.26917 16.1063 1.92939 16.5024 2.36954L19.7595 5.84672H1.80147C1.18527 5.84672 0.745117 6.33088 0.745117 6.90307C0.745117 7.51928 1.18527 7.95943 1.80147 7.95943Z" fill="#15CAB8"/>
</svg>
