<svg width="25" height="25" viewBox="0 0 25 25" fill="none" xmlns="http://www.w3.org/2000/svg">
<path d="M13.1797 5.37027C13.1797 6.02652 12.6641 6.49527 12.0547 6.49527C11.3984 6.49527 10.9297 6.02652 10.9297 5.37027V1.62027C10.9297 1.01089 11.3984 0.49527 12.0547 0.49527C12.6641 0.49527 13.1797 1.01089 13.1797 1.62027V5.37027ZM13.1797 23.3703C13.1797 24.0265 12.6641 24.4953 12.0547 24.4953C11.3984 24.4953 10.9297 24.0265 10.9297 23.3703V19.6203C10.9297 19.0109 11.3984 18.4953 12.0547 18.4953C12.6641 18.4953 13.1797 19.0109 13.1797 19.6203V23.3703ZM0.0546875 12.4953C0.0546875 11.8859 0.523438 11.3703 1.17969 11.3703H4.92969C5.53906 11.3703 6.05469 11.8859 6.05469 12.4953C6.05469 13.1515 5.53906 13.6203 4.92969 13.6203H1.17969C0.523438 13.6203 0.0546875 13.1515 0.0546875 12.4953ZM22.9297 11.3703C23.5391 11.3703 24.0547 11.8859 24.0547 12.4953C24.0547 13.1515 23.5391 13.6203 22.9297 13.6203H19.1797C18.5234 13.6203 18.0547 13.1515 18.0547 12.4953C18.0547 11.8859 18.5234 11.3703 19.1797 11.3703H22.9297ZM20.5391 4.01089C20.9609 4.47964 20.9609 5.18277 20.5391 5.60464L17.8672 8.27652C17.4453 8.69839 16.6953 8.69839 16.2734 8.27652C15.8516 7.85464 15.8516 7.10464 16.2734 6.68277L18.9453 4.01089C19.3672 3.58902 20.0703 3.58902 20.5391 4.01089ZM5.11719 20.9796C4.69531 21.4484 3.99219 21.4484 3.52344 20.9796C3.10156 20.5578 3.10156 19.8546 3.52344 19.4328L6.19531 16.7609C6.61719 16.339 7.36719 16.339 7.78906 16.7609C8.21094 17.1828 8.21094 17.9328 7.78906 18.3546L5.11719 20.9796ZM3.52344 4.01089C3.99219 3.58902 4.69531 3.58902 5.11719 4.01089L7.78906 6.68277C8.21094 7.10464 8.21094 7.85464 7.78906 8.27652C7.36719 8.69839 6.61719 8.69839 6.19531 8.27652L3.52344 5.60464C3.10156 5.18277 3.10156 4.47964 3.52344 4.01089ZM20.5391 19.4328C20.9609 19.8546 20.9609 20.5578 20.5391 20.9796C20.0703 21.4484 19.3672 21.4484 18.9453 20.9796L16.2734 18.3546C15.8516 17.9328 15.8516 17.1828 16.2734 16.7609C16.6953 16.339 17.4453 16.339 17.8672 16.7609L20.5391 19.4328Z" fill="#15CAB8"/>
</svg>
