<svg width="17" height="16" viewBox="0 0 17 16" fill="none" xmlns="http://www.w3.org/2000/svg">
<path d="M15.9492 14.7188L11.7617 10.5312C12.668 9.4375 13.168 8.03125 13.168 6.5C13.168 2.9375 10.2305 0 6.66797 0C3.07422 0 0.199219 2.9375 0.199219 6.5C0.199219 10.0938 3.10547 13 6.66797 13C8.16797 13 9.57422 12.5 10.6992 11.5938L14.8867 15.7812C15.043 15.9375 15.2305 16 15.4492 16C15.6367 16 15.8242 15.9375 15.9492 15.7812C16.2617 15.5 16.2617 15.0312 15.9492 14.7188ZM1.69922 6.5C1.69922 3.75 3.91797 1.5 6.69922 1.5C9.44922 1.5 11.6992 3.75 11.6992 6.5C11.6992 9.28125 9.44922 11.5 6.69922 11.5C3.91797 11.5 1.69922 9.28125 1.69922 6.5Z" fill="#036666"/>
</svg>
