<svg width="22" height="21" viewBox="0 0 22 21" fill="none" xmlns="http://www.w3.org/2000/svg">
<path d="M6.56733 4.92614C6.56733 4.32907 6.98069 3.86979 7.57776 3.86979H8.77191L10.2416 6.80922L8.77191 8.27893L12.4462 11.2184L10.9765 8.27893L13.181 6.80922L11.7113 3.86979H14.3293C14.9263 3.86979 15.3856 4.32907 15.3856 4.92614V9.01379C15.3856 11.2184 13.7781 13.0555 11.7113 13.377V15.6275H13.181C13.5485 15.6275 13.9159 15.9949 13.9159 16.3624C13.9159 16.7757 13.5485 17.0972 13.181 17.0972H8.77191C8.35855 17.0972 8.03705 16.7757 8.03705 16.3624C8.03705 15.9949 8.35855 15.6275 8.77191 15.6275H10.2416V13.377C8.12891 13.0555 6.56733 11.2184 6.56733 9.01379V4.92614ZM0.688477 3.13493C0.688477 1.52743 1.97448 0.195501 3.62791 0.195501H18.325C19.9325 0.195501 21.2645 1.52743 21.2645 3.13493V17.8321C21.2645 19.4855 19.9325 20.7715 18.325 20.7715H3.62791C1.97448 20.7715 0.688477 19.4855 0.688477 17.8321V3.13493ZM2.89305 3.13493V17.8321C2.89305 18.2454 3.21455 18.5669 3.62791 18.5669H18.325C18.6925 18.5669 19.0599 18.2454 19.0599 17.8321V3.13493C19.0599 2.7675 18.6925 2.40007 18.325 2.40007H3.62791C3.21455 2.40007 2.89305 2.7675 2.89305 3.13493Z" fill="#15CAB8"/>
</svg>
