<svg width="25" height="19" viewBox="0 0 25 19" fill="none" xmlns="http://www.w3.org/2000/svg">
<path d="M22.3984 0.49527C23.6172 0.49527 24.6484 1.52652 24.6484 2.74527V5.74527C24.6484 7.01089 23.6172 7.99527 22.3984 7.99527H2.89844C1.63281 7.99527 0.648438 7.01089 0.648438 5.74527V2.74527C0.648438 1.52652 1.63281 0.49527 2.89844 0.49527H22.3984ZM22.3984 2.74527H15.6484V5.74527H22.3984V2.74527ZM22.3984 10.9953C23.6172 10.9953 24.6484 12.0265 24.6484 13.2453V16.2453C24.6484 17.5109 23.6172 18.4953 22.3984 18.4953H2.89844C1.63281 18.4953 0.648438 17.5109 0.648438 16.2453V13.2453C0.648438 12.0265 1.63281 10.9953 2.89844 10.9953H22.3984ZM22.3984 13.2453H9.64844V16.2453H22.3984V13.2453Z" fill="#15CAB8"/>
</svg>
