<svg width="22" height="21" viewBox="0 0 22 21" fill="none" xmlns="http://www.w3.org/2000/svg">
<path d="M6.42969 7.49527C5.58594 7.49527 4.92969 6.83902 4.92969 5.99527C4.92969 5.19839 5.58594 4.49527 6.42969 4.49527C7.22656 4.49527 7.92969 5.19839 7.92969 5.99527C7.92969 6.83902 7.22656 7.49527 6.42969 7.49527ZM9.80469 5.99527C9.80469 5.38589 10.2734 4.87027 10.9297 4.87027H15.4297C16.0391 4.87027 16.5547 5.38589 16.5547 5.99527C16.5547 6.65152 16.0391 7.12027 15.4297 7.12027H10.9297C10.2734 7.12027 9.80469 6.65152 9.80469 5.99527ZM9.80469 10.4953C9.80469 9.88589 10.2734 9.37027 10.9297 9.37027H15.4297C16.0391 9.37027 16.5547 9.88589 16.5547 10.4953C16.5547 11.1515 16.0391 11.6203 15.4297 11.6203H10.9297C10.2734 11.6203 9.80469 11.1515 9.80469 10.4953ZM9.80469 14.9953C9.80469 14.3859 10.2734 13.8703 10.9297 13.8703H15.4297C16.0391 13.8703 16.5547 14.3859 16.5547 14.9953C16.5547 15.6515 16.0391 16.1203 15.4297 16.1203H10.9297C10.2734 16.1203 9.80469 15.6515 9.80469 14.9953ZM6.42969 8.99527C7.22656 8.99527 7.92969 9.69839 7.92969 10.4953C7.92969 11.339 7.22656 11.9953 6.42969 11.9953C5.58594 11.9953 4.92969 11.339 4.92969 10.4953C4.92969 9.69839 5.58594 8.99527 6.42969 8.99527ZM6.42969 16.4953C5.58594 16.4953 4.92969 15.839 4.92969 14.9953C4.92969 14.1984 5.58594 13.4953 6.42969 13.4953C7.22656 13.4953 7.92969 14.1984 7.92969 14.9953C7.92969 15.839 7.22656 16.4953 6.42969 16.4953ZM0.429688 2.99527C0.429688 1.35464 1.74219 -0.00473022 3.42969 -0.00473022H18.4297C20.0703 -0.00473022 21.4297 1.35464 21.4297 2.99527V17.9953C21.4297 19.6828 20.0703 20.9953 18.4297 20.9953H3.42969C1.74219 20.9953 0.429688 19.6828 0.429688 17.9953V2.99527ZM2.67969 2.99527V17.9953C2.67969 18.4171 3.00781 18.7453 3.42969 18.7453H18.4297C18.8047 18.7453 19.1797 18.4171 19.1797 17.9953V2.99527C19.1797 2.62027 18.8047 2.24527 18.4297 2.24527H3.42969C3.00781 2.24527 2.67969 2.62027 2.67969 2.99527Z" fill="#15CAB8"/>
</svg>
