<svg width="22" height="16" viewBox="0 0 22 16" fill="none" xmlns="http://www.w3.org/2000/svg">
<g id="artwork">
<rect width="22" height="16" rx="2" fill="#249F58"/>
<path id="vector" fill-rule="evenodd" clip-rule="evenodd" d="M16.7619 10.6668V9.6001H5.23809L7.33333 10.6668H13.619C13.619 11.2556 14.323 11.7334 15.1905 11.7334C16.0579 11.7334 16.7619 11.2556 16.7619 10.6668ZM9.14571 4.1665C9.13314 4.1665 9.11428 4.1729 9.09018 4.18784C9.03361 4.22624 8.92256 4.34464 8.91837 4.48117C8.91523 4.55904 8.90057 4.55904 8.9498 4.60917C8.98542 4.66037 9.02314 4.6561 9.09437 4.61664C9.13628 4.58464 9.1499 4.5665 9.16457 4.51424C9.18133 4.4289 9.07342 4.5569 9.0598 4.45877C9.03571 4.36917 9.10485 4.33077 9.1698 4.24544C9.1719 4.20277 9.1719 4.17077 9.14571 4.16864V4.1665ZM10.1965 4.17184C10.1755 4.1761 10.1514 4.20384 10.1168 4.2657C10.0928 4.33184 9.98695 4.4321 10.0645 4.63904C10.1252 4.77024 10.1514 4.9825 10.1231 5.22037C10.0791 5.28757 10.0708 5.31104 10.0131 5.37824C9.93352 5.46677 9.84552 5.44437 9.78057 5.41024C9.71771 5.36757 9.66952 5.34624 9.64123 5.21184C9.64647 4.9985 9.65904 4.64437 9.62028 4.5697C9.56371 4.4545 9.46942 4.49504 9.42961 4.53024C9.2379 4.71157 9.14256 5.01344 9.0839 5.25557C9.03152 5.4305 8.9739 5.3793 8.93409 5.3089C8.83666 5.21504 8.82933 4.48757 8.71199 4.6081C8.52342 5.15637 8.8199 5.7569 9.02628 5.69824C9.17295 5.76224 9.26723 5.47424 9.32799 5.15957C9.3699 5.07104 9.40133 5.06037 9.42228 5.10624C9.41704 5.52437 9.45371 5.61824 9.55847 5.7441C9.79314 5.9297 9.98799 5.76757 10.0037 5.75264L10.187 5.56704C10.2289 5.52437 10.2813 5.5201 10.3389 5.5585C10.3955 5.61184 10.3882 5.70037 10.5066 5.76117C10.6092 5.80384 10.824 5.77184 10.8732 5.6833C10.9413 5.56597 10.957 5.52544 10.9885 5.48064C11.0367 5.41664 11.1194 5.44544 11.1194 5.4657C11.1121 5.50304 11.0639 5.54037 11.0964 5.60437C11.154 5.64704 11.1676 5.6193 11.2011 5.6097C11.3206 5.5521 11.4107 5.28757 11.4107 5.28757C11.4159 5.18944 11.3614 5.1969 11.3269 5.21717C11.2797 5.24597 11.2776 5.25557 11.2326 5.28437C11.1729 5.2929 11.0597 5.33237 11.0042 5.24384C10.9466 5.13717 10.9466 4.98997 10.9026 4.88117C10.9026 4.87477 10.8261 4.7137 10.8963 4.7041C10.9309 4.7105 11.0084 4.73077 11.0199 4.6657C11.0576 4.6017 10.9392 4.42037 10.8586 4.33077C10.7894 4.2529 10.693 4.2433 10.5998 4.32224C10.5338 4.3841 10.5443 4.45237 10.5307 4.51744C10.5149 4.5921 10.5181 4.6849 10.5935 4.7841C10.6585 4.91424 10.7769 5.08277 10.737 5.31957C10.737 5.31957 10.6689 5.43264 10.5485 5.4177C10.4961 5.40704 10.4144 5.3857 10.3704 5.05504C10.3389 4.8065 10.3788 4.4577 10.2761 4.2945C10.252 4.2337 10.2321 4.17397 10.1986 4.17717L10.1965 4.17184ZM9.86333 4.19957C9.8319 4.20277 9.79733 4.2401 9.76904 4.31157C9.74495 4.36704 9.71456 4.6529 9.7198 4.6529C9.69885 4.73824 9.80676 4.7745 9.85599 4.6657C9.92933 4.46304 9.92933 4.3777 9.93352 4.2945C9.92304 4.2305 9.89476 4.1985 9.86333 4.20064V4.19957ZM11.0922 4.2209C11.0608 4.22517 11.0346 4.24437 11.0251 4.29344C11.0115 4.4065 11.0189 4.46944 11.0377 4.56437C11.0513 4.62837 11.1425 4.7329 11.1865 4.79477C11.3991 5.08597 11.6055 5.37824 11.8025 5.6801C11.8339 5.90624 11.8549 6.12597 11.8706 6.3457C11.9041 6.8257 11.9125 7.42304 11.8842 7.9297C11.9722 7.9329 12.1147 7.78357 12.1639 7.56704C12.1953 7.2641 12.1534 6.6497 12.1492 6.4705L12.1388 6.21664C12.3692 6.60064 12.5913 7.00597 12.8092 7.4497C12.8899 7.4113 12.8721 6.9537 12.826 6.8897C12.65 6.5057 12.4069 6.12597 12.3305 5.97984C12.3022 5.9265 12.2069 5.78037 12.0948 5.61077C12.0738 5.36757 12.0508 5.16277 12.0361 5.1009C11.9994 4.8449 12.1388 5.1297 12.1199 4.98144C12.0738 4.72544 11.9355 4.55264 11.7721 4.31797C11.7197 4.2433 11.7197 4.22624 11.639 4.33717C11.5919 4.44917 11.5919 4.54304 11.6076 4.6305C11.5846 4.5985 11.5584 4.56224 11.5207 4.5153L11.2535 4.2849C11.2168 4.25824 11.1456 4.2177 11.0922 4.2209ZM14.7337 4.26037C14.718 4.25824 14.7023 4.2657 14.6813 4.2945C14.6447 4.3265 14.6059 4.3873 14.608 4.46517C14.6153 4.5985 14.6394 4.7361 14.6478 4.8705L14.6583 4.92384C14.6436 4.90677 14.631 4.89184 14.6237 4.88544C14.3649 4.6081 14.7421 4.8385 14.5734 4.62624C14.432 4.46624 14.3901 4.41717 14.2696 4.32117C14.2068 4.28277 14.1711 4.20597 14.1512 4.3361C14.1429 4.45024 14.1345 4.58357 14.1408 4.67957C14.1408 4.7329 14.1963 4.83424 14.2434 4.8929C14.4152 5.10944 14.5912 5.33877 14.7672 5.5777C14.8049 6.06517 14.8144 6.5121 14.851 7.00064C14.8468 7.2097 14.784 7.48704 14.7253 7.51264C14.7253 7.51264 14.6331 7.56597 14.5724 7.5073C14.5273 7.48917 14.3503 7.20544 14.3503 7.20544C14.2591 7.1201 14.1984 7.14464 14.1345 7.20544C13.9564 7.38037 13.8747 7.7089 13.7542 7.93504C13.7228 7.98517 13.6358 8.0289 13.5384 7.93077C13.2901 7.58517 13.4336 7.09344 13.4043 7.22037C13.1843 7.47424 13.2807 7.8945 13.3309 7.98517C13.4043 8.1345 13.4629 8.2305 13.6033 8.30197C13.7343 8.39797 13.8338 8.3393 13.8904 8.26997C14.0203 8.13344 14.0224 7.7825 14.0831 7.71317C14.125 7.58517 14.2329 7.6065 14.2853 7.6641C14.3377 7.73877 14.3964 7.78677 14.4708 7.8273C14.5923 7.9361 14.7369 7.9553 14.8793 7.8561C14.9768 7.80064 15.0407 7.7281 15.0972 7.58517C15.1601 7.41877 15.1287 6.5441 15.115 6.0577L15.3874 6.45877C15.4251 6.88544 15.4429 7.30677 15.4293 7.70997C15.4209 7.78997 15.7049 7.47104 15.7017 7.31957C15.7017 7.18837 15.7038 7.06784 15.7017 6.9569C15.841 7.1809 15.9741 7.4081 16.0998 7.63957C16.1784 7.5969 16.1522 7.1457 16.1029 7.0849C15.9709 6.85877 15.8012 6.61557 15.6703 6.4257C15.6441 6.18784 15.6095 5.9073 15.5928 5.8209C15.5687 5.6865 15.5435 5.4849 15.5058 5.32597C15.4953 5.26517 15.4639 5.06677 15.4744 5.04864C15.489 5.00277 15.5477 5.04864 15.576 4.99744C15.6179 4.94944 15.4272 4.44277 15.3298 4.29984C15.2952 4.23584 15.2313 4.25717 15.1538 4.36384C15.0805 4.4321 15.1077 4.58997 15.1349 4.74037C15.2062 5.12437 15.2711 5.51264 15.3214 5.90304C15.2271 5.75904 15.1119 5.58624 14.9988 5.4209L14.9841 5.34624C14.9841 5.3377 14.9694 5.03157 14.9558 4.95904C14.9527 4.92917 14.9453 4.92064 14.9768 4.9249C15.0082 4.95264 15.0124 4.9537 15.0323 4.9633C15.0658 4.96757 15.0951 4.9121 15.0742 4.85984L14.7704 4.29024C14.7599 4.27637 14.7452 4.26357 14.7285 4.26144L14.7337 4.26037ZM5.33656 4.27104C5.27895 4.2689 5.21818 4.30304 5.24228 4.37237C5.22761 4.4097 5.35123 4.53557 5.37323 4.6049C5.39104 4.65504 5.35228 4.8129 5.39418 4.8289C5.43085 4.8449 5.48218 4.71797 5.50104 4.6017C5.51152 4.5377 5.50418 4.31797 5.35752 4.27317C5.35018 4.27104 5.34285 4.27104 5.33447 4.26997L5.33656 4.27104ZM16.0432 4.27104C16.0296 4.27317 16.0139 4.29237 15.9909 4.3457C15.9332 4.4417 15.9133 4.61237 15.9364 4.7617C16.0726 5.71104 16.1773 6.6305 16.1983 7.47104C16.1857 7.5521 16.1815 7.59477 16.1459 7.69504C16.0642 7.8017 15.9741 7.93397 15.8892 7.99797C15.8054 8.06197 15.6252 8.12384 15.5666 8.17077C15.378 8.27957 15.378 8.40544 15.5289 8.41077C15.7887 8.37877 16.0967 8.35744 16.3083 8.0321C16.3649 7.94144 16.4319 7.69397 16.434 7.54144C16.4549 6.6561 16.4235 5.78677 16.2926 5.1457C16.2842 5.0817 16.2569 4.93984 16.2674 4.9217C16.2831 4.8769 16.368 4.9249 16.3984 4.87477C16.4434 4.82784 16.1784 4.4833 16.0862 4.3361C16.0673 4.29984 16.0548 4.2689 16.0401 4.2721L16.0432 4.27104ZM13.3163 4.28597C13.3058 4.2881 13.2911 4.30517 13.2618 4.34464C13.1885 4.5857 13.1633 4.78197 13.1916 4.93344C13.3802 5.92544 13.5688 6.82677 13.5394 7.77077C13.6274 7.77077 13.7301 7.5649 13.7741 7.3601C13.7982 7.07744 13.7573 6.9057 13.751 6.74144C13.7437 6.57504 13.5667 5.23104 13.531 5.10624C13.487 4.86944 13.7028 5.07424 13.6798 4.9377C13.6044 4.76277 13.4179 4.51104 13.3613 4.3585C13.3404 4.31797 13.3362 4.28064 13.3194 4.28384L13.3163 4.28597ZM6.68066 4.30517C6.65971 4.30944 6.63561 4.32864 6.62828 4.3585C6.62304 4.37984 6.63666 4.41504 6.6178 4.4257C6.60733 4.43637 6.56752 4.4289 6.56961 4.37237C6.56961 4.35317 6.55599 4.33397 6.54866 4.32224C6.54028 4.31797 6.53504 4.3169 6.52037 4.3169C6.50256 4.3169 6.50256 4.32224 6.49314 4.33824C6.48895 4.35317 6.48266 4.3681 6.48266 4.38517C6.48057 4.4065 6.47218 4.41184 6.45856 4.41504C6.4418 4.41504 6.44495 4.41717 6.43237 4.40757C6.4219 4.4001 6.41352 4.3969 6.41352 4.38197C6.41352 4.36597 6.40933 4.3393 6.40514 4.33077C6.3978 4.3201 6.38628 4.31584 6.37371 4.31264C6.30457 4.31264 6.30037 4.39584 6.30352 4.4257C6.29828 4.4321 6.29618 4.57504 6.39047 4.61557C6.51618 4.67744 6.75504 4.65077 6.74666 4.44277C6.74666 4.42464 6.74142 4.36277 6.73933 4.34677C6.72676 4.31477 6.70266 4.3041 6.67961 4.3073L6.68066 4.30517ZM8.38409 4.3073C8.34009 4.30944 8.30028 4.32224 8.26885 4.3393C8.18504 4.42144 8.16409 4.55264 8.23114 4.63477C8.29399 4.66677 8.35999 4.73077 8.31704 4.7681C8.13476 4.96544 7.66018 5.29717 7.63609 5.35797V5.36437H7.64028V5.3665C7.66437 5.3825 7.9619 5.3825 7.99437 5.3665H7.99647C8.09914 5.32704 8.58314 4.76384 8.58314 4.76384C8.55799 4.7425 8.53495 4.72544 8.5098 4.70304C8.48256 4.67957 8.48571 4.6561 8.5098 4.63264C8.62923 4.56224 8.59152 4.40544 8.52866 4.33397C8.47628 4.3105 8.42809 4.30197 8.38409 4.30517V4.3073ZM12.8365 4.3073C12.8239 4.3105 12.8082 4.32864 12.7841 4.38197C12.7265 4.47797 12.6877 4.6433 12.6929 4.79797C12.8166 5.67264 12.8543 6.43744 12.936 7.3121C12.9423 7.39744 12.9297 7.51904 12.8752 7.5681C12.6699 7.7857 12.3755 8.05237 12.0549 8.1761C12.0204 8.21557 12.1409 8.38304 12.2959 8.38304C12.5557 8.35104 12.7841 8.20384 12.9978 7.81237C13.0533 7.7217 13.1529 7.5265 13.1549 7.37504C13.1759 6.48757 13.113 5.79637 12.981 5.15637C12.9737 5.09237 12.9789 5.0177 12.9894 5.00064C13.0062 4.9793 13.0628 5.00064 13.0942 4.9505C13.1382 4.90357 12.9748 4.52064 12.8826 4.3745C12.8637 4.33717 12.8532 4.3073 12.8365 4.30837V4.3073ZM5.93895 4.3361C5.90333 4.34037 5.8698 4.3681 5.85304 4.41077C5.8478 4.54944 5.84676 4.6881 5.86352 4.81824C5.92637 5.04544 5.94418 5.2449 5.97457 5.47637C5.98504 5.78784 5.79857 5.61077 5.80695 5.45717C5.84885 5.25664 5.83837 4.94197 5.80066 4.86197C5.76923 4.78197 5.73571 4.76277 5.66237 4.77664C5.60476 4.77237 5.45495 4.93664 5.41304 5.21397C5.41304 5.21397 5.37742 5.35477 5.36276 5.48064C5.3418 5.6225 5.24961 5.72384 5.18466 5.46144C5.12914 5.26944 5.09561 4.8001 5.00237 4.9089C4.97514 5.27584 4.94371 5.92224 5.24961 5.98837C5.62047 6.02464 5.41514 5.3505 5.54923 5.22784C5.57542 5.16917 5.62256 5.1681 5.62571 5.24384V5.81664C5.62152 6.00224 5.74095 6.0577 5.83523 6.0961C5.93266 6.08864 5.99657 6.09184 6.03428 6.18784L6.08142 7.17984C6.08142 7.17984 6.30561 7.24384 6.31609 6.62197C6.32656 6.2561 6.24276 5.94997 6.29199 5.8785C6.29409 5.8081 6.38209 5.80384 6.44285 5.83904C6.54028 5.90837 6.58323 5.9937 6.73409 5.95957C6.96457 5.89557 7.10076 5.7825 7.1039 5.6033C7.09342 5.43264 7.07247 5.26197 6.99914 5.0913C7.00961 5.06144 6.95723 4.98144 6.96771 4.9505C7.00752 5.0145 7.07037 5.01024 7.08295 4.9505C7.04523 4.8193 6.98447 4.6945 6.88599 4.64117C6.80533 4.5665 6.68695 4.5825 6.64295 4.73397C6.62199 4.9089 6.7058 5.11584 6.83152 5.28544C6.85666 5.35157 6.89437 5.46144 6.87761 5.56064C6.81161 5.59904 6.74561 5.58197 6.68904 5.5233C6.68904 5.5233 6.5078 5.38464 6.5078 5.35264C6.55704 5.03797 6.51828 5.00064 6.49209 4.9153C6.47323 4.7937 6.41666 4.7553 6.37161 4.6721C6.32552 4.62197 6.26371 4.62197 6.23542 4.6721C6.15371 4.81397 6.19142 5.1201 6.25009 5.25557C6.29199 5.38144 6.35695 5.46037 6.32657 5.46037C6.30142 5.5297 6.24904 5.5137 6.21133 5.43157C6.15895 5.2609 6.14637 5.00917 6.14637 4.89504C6.13066 4.75424 6.11285 4.45237 6.02066 4.37557C5.99657 4.34144 5.96828 4.3297 5.93999 4.3329L5.93895 4.3361ZM7.24009 4.3361C7.22228 4.34037 7.20133 4.35104 7.17723 4.35744C7.09866 4.38197 7.02533 4.4513 7.04837 4.5857C7.14266 5.1617 7.20237 5.60224 7.29561 6.17824C7.30923 6.2465 7.25371 6.33504 7.18247 6.32757C7.06095 6.24224 7.03057 6.07157 6.82314 6.0801C6.67228 6.0801 6.50047 6.24864 6.47952 6.40864C6.45437 6.53664 6.44599 6.6753 6.47952 6.78624C6.58428 6.91424 6.71209 6.90144 6.82314 6.87157C6.91428 6.83424 6.99076 6.74357 7.02218 6.7649C7.04314 6.8001 7.02009 7.09984 6.59266 7.33024C6.32866 7.45184 6.11914 7.47957 6.00599 7.26197C5.93685 7.12544 6.01228 6.6049 5.84047 6.72437C5.33133 8.05984 7.03161 8.24544 7.22123 6.77984C7.2338 6.73717 7.27047 6.69664 7.29771 6.7073C7.30818 6.71264 7.31866 6.72864 7.32285 6.7585C7.28304 8.08544 6.00704 8.17717 5.79123 7.75904C5.73676 7.6609 5.72104 7.44117 5.7158 7.31104C5.70533 7.23104 5.68647 7.18517 5.66342 7.16704C5.61104 7.12757 5.5419 7.23104 5.52723 7.40917C5.50628 7.55317 5.51152 7.59264 5.51152 7.7313C5.58066 8.77984 7.22228 8.32864 7.48942 7.46464C7.62142 7.01664 7.48628 6.6785 7.53133 6.6369L7.53447 6.63477H7.53761L7.54285 6.63264C7.70628 6.81184 7.93466 6.65397 7.98495 6.59317C8.0059 6.56117 8.06037 6.53984 8.09809 6.5825C8.2238 6.67424 8.44799 6.6305 8.49409 6.46517C8.52133 6.30517 8.54437 6.1409 8.54961 5.96917C8.4658 5.99584 8.39876 6.01504 8.37152 6.04384C8.36523 6.0513 8.36104 6.05984 8.35895 6.06837L8.33799 6.21024C8.33799 6.21557 8.3359 6.21877 8.3338 6.2209C8.33066 6.22837 8.32333 6.2337 8.31914 6.2369C8.2898 6.2529 8.23847 6.24437 8.23533 6.20064C8.19656 6.0193 8.03418 5.99584 7.93571 6.2785C7.86971 6.33184 7.74714 6.3425 7.73666 6.26144C7.75237 6.07157 7.67695 6.04597 7.52714 6.13557L7.38256 5.02624C7.44542 5.02304 7.50199 5.0689 7.56066 4.99637C7.4978 4.8001 7.36685 4.40117 7.29247 4.36277H7.29037L7.2799 4.3521C7.2799 4.34997 7.27676 4.3489 7.27466 4.34784L7.27047 4.34144C7.26628 4.34144 7.26209 4.3393 7.25999 4.33824C7.25266 4.3361 7.24637 4.3361 7.23904 4.3361H7.24009ZM12.3127 4.34037C12.2477 4.33824 12.1765 4.37984 12.2037 4.46304C12.1869 4.5089 12.343 4.6625 12.3682 4.7457C12.4132 4.8737 12.3336 4.9985 12.3808 5.01664C12.4248 5.03584 12.4855 4.8833 12.5065 4.74144C12.5337 4.62624 12.4541 4.39157 12.3389 4.34357L12.3127 4.34144V4.34037ZM8.35999 4.4801C8.38933 4.47797 8.42495 4.5057 8.4438 4.5441C8.46161 4.58677 8.45218 4.62624 8.42285 4.6337C8.39142 4.64117 8.35161 4.6145 8.33276 4.57184C8.3139 4.52917 8.32228 4.4897 8.35371 4.48224H8.35999V4.4801ZM15.6902 4.67424C15.6305 4.6721 15.5645 4.7169 15.5917 4.80757C15.577 4.85664 15.7174 5.02304 15.7415 5.11477C15.7625 5.17877 15.7101 5.38784 15.752 5.40704C15.7918 5.42837 15.8463 5.26197 15.8672 5.10837C15.8798 5.02304 15.819 4.7297 15.7153 4.67744C15.708 4.6753 15.6996 4.67317 15.6912 4.67317L15.6902 4.67424ZM11.6359 4.77664C11.6432 4.80117 11.6485 4.8257 11.6516 4.8513C11.6642 4.90464 11.6747 4.95797 11.6851 5.01344C11.639 4.9473 11.6013 4.89397 11.5835 4.87477C11.4788 4.74677 11.5856 4.79157 11.6359 4.77664ZM12.5714 5.24384C12.5484 5.2481 12.5264 5.26837 12.519 5.30037C12.5128 5.31957 12.5274 5.3537 12.5086 5.36437C12.4981 5.37504 12.4562 5.36864 12.4593 5.31104C12.4593 5.29184 12.4457 5.27157 12.4384 5.2609C12.43 5.25557 12.4248 5.25344 12.4101 5.25344C12.3923 5.25344 12.3923 5.25877 12.3829 5.27477C12.3787 5.2897 12.3724 5.30464 12.3724 5.32277C12.3724 5.3441 12.364 5.3505 12.3493 5.35477C12.3326 5.35477 12.3357 5.35477 12.3221 5.3473C12.3137 5.33664 12.3043 5.3345 12.3043 5.31957C12.3043 5.30357 12.3011 5.27904 12.2959 5.26837C12.2886 5.2577 12.2781 5.2545 12.2645 5.25024C12.1964 5.25024 12.1911 5.3313 12.1953 5.36117C12.1911 5.36757 12.188 5.51264 12.2823 5.55317C12.4101 5.61397 12.6489 5.58517 12.6385 5.37824C12.6385 5.3601 12.6332 5.29824 12.6322 5.28224C12.6186 5.25024 12.5945 5.23957 12.5725 5.24277L12.5714 5.24384ZM8.30761 5.2865C8.29295 5.2865 8.27199 5.29077 8.2479 5.3057C8.1358 5.36757 8.09285 5.55104 8.16409 5.6577C8.22695 5.7537 8.33171 5.7185 8.34533 5.7185C8.45533 5.73344 8.52028 5.50944 8.52028 5.50944C8.52028 5.50944 8.52342 5.44544 8.39456 5.5649C8.33799 5.57557 8.33171 5.55424 8.31704 5.52224C8.30447 5.4657 8.30656 5.4049 8.33276 5.34837C8.34533 5.31317 8.33276 5.29077 8.30761 5.28864V5.2865ZM14.3346 5.3153C14.2717 5.3121 14.2057 5.3537 14.1879 5.4401C14.1879 5.4913 14.2109 5.51904 14.2068 5.56597C14.2015 5.59264 14.1753 5.60864 14.1104 5.57877C14.1209 5.5681 14.0685 5.49557 14.0685 5.49557C14.0192 5.46357 13.9532 5.49557 13.9092 5.52544C13.8851 5.57024 13.8673 5.64597 13.8946 5.72277C13.9658 5.85824 14.212 6.08864 14.3293 6.09077C14.3314 5.96917 14.3429 5.80704 14.3503 5.70677C14.3524 5.66837 14.3608 5.62677 14.3974 5.61717C14.433 5.6065 14.4949 5.65344 14.4949 5.61397C14.4886 5.53717 14.4739 5.42197 14.432 5.36864C14.4089 5.33664 14.3723 5.31744 14.3356 5.3153H14.3346ZM9.34476 5.73877L9.34161 5.74197C9.34161 5.74197 9.33952 5.74197 9.33847 5.7441C9.3259 5.75477 9.31123 5.7761 9.27876 5.79744C9.22323 5.86144 9.2138 5.9073 9.2159 6.0353C9.22009 6.04917 9.32066 6.33717 9.40761 6.53877C9.46628 6.7489 9.51971 6.98997 9.48095 7.21717C9.34476 7.51797 9.07237 7.78784 8.80733 7.93504C8.67114 7.9777 8.5559 7.96277 8.52447 7.9329C8.44695 7.87957 8.4459 7.78357 8.45114 7.76864V7.76544C8.67323 7.60757 8.9278 7.47957 9.12685 7.05397C9.18552 6.89077 9.20437 6.79264 9.14571 6.54197C9.12266 6.44597 9.09333 6.3713 9.03047 6.30304H9.03256C9.07028 6.2849 9.16876 6.3585 9.18447 6.3137C9.16037 6.1921 9.07971 6.03104 8.99066 5.94784C8.91104 5.87317 8.82304 5.8657 8.7518 5.9329C8.67009 5.97984 8.65333 6.14624 8.69209 6.2913C8.73609 6.4001 8.85447 6.4193 8.93828 6.6401C8.94037 6.65504 8.96656 6.80544 8.92466 6.8673C8.88904 6.9761 8.44799 7.33024 8.41657 7.35157L8.41342 7.3537L8.41133 7.35584H8.40923H8.40714V7.35264C8.40504 7.3441 8.40714 7.32064 8.40714 7.28544C8.40399 7.2193 8.43123 7.0689 8.42809 7.04224V7.0401C8.28142 7.1361 8.23218 7.42944 8.20599 7.5169C7.83618 7.7761 7.41714 7.96917 7.17514 8.23157C7.04942 8.43424 8.04257 8.0033 8.1578 7.95104L8.16095 7.95424C8.18399 7.97877 8.18504 8.0641 8.25104 8.14197C8.3558 8.28384 8.57371 8.3713 8.78742 8.3169C9.14571 8.1857 9.35314 7.93717 9.56266 7.6609C9.59199 7.61824 9.63914 7.58197 9.68314 7.6161C9.82666 7.94464 10.2436 8.1793 10.781 8.20277C10.9068 8.04917 10.847 7.97344 10.7968 7.94144C10.781 7.93077 10.5296 7.8305 10.4898 7.7313C10.4657 7.63957 10.5254 7.55744 10.6449 7.49664C10.9906 7.45397 11.33 7.40597 11.6589 7.29824C11.6621 7.18517 11.727 7.0177 11.771 6.9441C11.8025 6.89397 11.8203 6.88864 11.8276 6.88224V6.8801H11.8297V6.8769V6.86624L11.7731 6.8321L10.67 6.82784C10.6564 6.8225 10.6469 6.81717 10.6407 6.81184L10.6386 6.80864C10.6386 6.80864 10.6365 6.80864 10.6365 6.8065C10.6365 6.80437 10.6344 6.80437 10.6344 6.80437V6.80544V6.8033V6.80117V6.79904L10.6365 6.79584C10.6417 6.78944 10.6553 6.78197 10.671 6.7745C10.935 6.7393 11.4023 6.66144 11.4337 6.20384C11.4285 5.9649 11.3331 5.80917 11.0461 5.7665C10.8345 5.7825 10.6836 5.9905 10.7077 6.21877C10.6972 6.27957 10.7287 6.4001 10.6658 6.41397C10.2614 6.45237 9.81933 6.7105 9.80466 6.8961H9.80257H9.80047H9.79837C9.79837 6.89824 9.79628 6.89824 9.79523 6.89824H9.79104H9.78895H9.78476C9.75856 6.8897 9.72504 6.8449 9.73028 6.7841C9.71456 6.4641 9.6119 6.10144 9.45266 5.8241C9.39504 5.76544 9.36885 5.74197 9.35418 5.73877H9.35104H9.3479H9.3458H9.34476ZM10.4008 5.9073C10.3798 5.91157 10.3557 5.93077 10.3484 5.96277C10.3431 5.9841 10.3589 6.01824 10.34 6.0289C10.3295 6.03957 10.2876 6.03317 10.2897 5.97557C10.2897 5.95744 10.2761 5.93717 10.2688 5.92544C10.2604 5.9201 10.2551 5.91904 10.2415 5.91904C10.2237 5.91904 10.2227 5.9233 10.2132 5.93824C10.208 5.95317 10.2028 5.97024 10.2028 5.98624C10.2007 6.00757 10.1923 6.01397 10.1787 6.0161C10.1619 6.0161 10.1661 6.0193 10.1525 6.01077C10.1441 6.00224 10.1336 5.99797 10.1336 5.98304C10.1336 5.96704 10.1305 5.94037 10.1263 5.9297C10.1189 5.92224 10.1074 5.91904 10.0949 5.91477C10.0247 5.91477 10.0215 5.99477 10.0247 6.0257C10.0194 6.03104 10.0163 6.17504 10.1106 6.21557C10.2363 6.27744 10.5401 6.24117 10.4668 6.0417C10.4668 6.02357 10.4615 5.9617 10.4605 5.9457C10.4469 5.9137 10.4228 5.90304 10.3997 5.90624L10.4008 5.9073ZM14.6593 6.08544H14.6489C14.6489 6.08544 14.0601 6.5121 14.0465 6.52704C13.9878 6.58037 14.0171 6.7649 14.0465 6.74357C14.0884 6.75957 14.6803 6.35104 14.6688 6.30304C14.6949 6.30517 14.7075 6.0929 14.6583 6.08437L14.6593 6.08544ZM10.957 6.14944C10.9801 6.14624 11.0115 6.15477 11.0409 6.17077C11.0859 6.1985 11.1142 6.2369 11.1089 6.26677V6.27104C11.1069 6.27104 11.1069 6.27104 11.1069 6.27317V6.2753C11.1069 6.2753 11.1048 6.2753 11.1048 6.27744C11.1048 6.27957 11.1016 6.2817 11.0995 6.28384C11.0786 6.30517 11.0304 6.3009 10.9843 6.27317C10.9403 6.24864 10.9141 6.20917 10.9162 6.18144V6.17824L10.9214 6.16757C10.9214 6.16757 10.9214 6.16544 10.9235 6.16437L10.9288 6.15797C10.9361 6.15264 10.9455 6.1473 10.957 6.1473V6.14944ZM5.80485 6.2561C5.50104 6.2625 5.05371 6.66357 5.04218 6.88544L6.00599 6.4161C5.95361 6.33504 6.00285 6.2625 5.80485 6.2561ZM6.79276 6.39477C6.82209 6.3969 6.85352 6.41184 6.87028 6.4545C6.88495 6.49397 6.87028 6.5345 6.85247 6.55477V6.55797C6.8378 6.57504 6.7938 6.56864 6.76133 6.56864C6.72256 6.5665 6.70371 6.5601 6.68066 6.5281C6.66809 6.49077 6.70161 6.45557 6.71733 6.42997L6.72466 6.4193C6.73514 6.40864 6.75609 6.4001 6.77704 6.39797L6.79066 6.39584L6.79276 6.39477ZM14.5451 6.51957C14.4896 6.52597 14.4383 6.57824 14.4613 6.66144C14.4467 6.7105 14.5347 6.88224 14.5588 6.9729C14.5797 7.0369 14.5315 7.22144 14.5745 7.23957C14.6143 7.2609 14.718 7.1329 14.7148 6.96864C14.7253 6.8833 14.6855 6.57397 14.5818 6.52277C14.5692 6.51957 14.5567 6.5185 14.5441 6.51957H14.5451ZM7.9619 6.8225C7.91371 6.8257 7.87076 6.8513 7.89066 6.92064C7.88752 6.9697 8.02685 7.0305 8.03418 7.14464C8.05304 7.1937 8.00276 7.3473 8.04466 7.3601C8.08237 7.3761 8.13476 7.25344 8.15466 7.1425C8.16514 7.08064 8.10647 6.86517 8.00799 6.8257C7.99228 6.82144 7.97656 6.82037 7.96085 6.82144L7.9619 6.8225ZM9.93142 7.09557H9.94399C10.0676 7.1297 10.2478 7.13397 10.4049 7.1489C10.5338 7.15957 10.5967 7.25984 10.4783 7.30357C10.3589 7.3441 10.2447 7.37824 10.2447 7.55104C10.2593 7.63637 10.2551 7.68117 10.2426 7.70037C10.2426 7.70357 10.2394 7.7057 10.2384 7.70677C10.2384 7.70677 10.2384 7.7089 10.2363 7.7089V7.71104H10.2331L10.2258 7.71424H10.2206C10.1923 7.71957 10.1514 7.6929 10.121 7.67584C10.0477 7.6225 9.84342 7.4945 9.81409 7.21717C9.8099 7.15317 9.85599 7.09984 9.92933 7.0945L9.93142 7.09557ZM5.11866 7.3089C5.11133 7.3089 5.09771 7.33237 5.07676 7.35904C4.89447 7.65237 4.87771 8.09077 4.97828 8.22304C5.03066 8.28384 5.11866 8.31157 5.18361 8.29237C5.29885 8.24224 5.34809 8.0065 5.3198 7.92117C5.28314 7.86037 5.25276 7.85077 5.21504 7.90197C5.13437 8.0673 5.0998 7.95317 5.09456 7.8593C5.08199 7.68544 5.09876 7.5233 5.11761 7.3953C5.12809 7.3313 5.12809 7.30677 5.11761 7.30677L5.11866 7.3089ZM11.2965 7.69504C11.2829 7.69504 11.2692 7.69717 11.2546 7.7057C11.2514 7.7057 11.1247 7.79104 11.0838 7.8529C11.0587 7.8721 11.0629 7.8881 11.0691 7.92224C11.088 7.9681 11.1215 7.95424 11.1613 7.9329C11.2137 7.92437 11.2378 7.95957 11.2347 8.0225C11.2106 8.1025 11.2451 8.1313 11.2451 8.13664C11.2451 8.1409 11.2944 8.18464 11.353 8.1505C11.4756 8.1025 11.5521 8.0545 11.7249 8.01717C11.77 8.01717 11.7668 7.89344 11.6956 7.88917C11.6013 7.89344 11.5175 7.89984 11.4232 7.9745C11.3656 7.9873 11.3562 7.95104 11.3426 7.91904C11.3279 7.8401 11.3761 7.78464 11.3656 7.7249C11.3677 7.7281 11.3363 7.6993 11.2954 7.69717L11.2965 7.69504ZM15.2523 7.84437L15.1685 7.8529C15.1308 7.86037 15.1182 7.87744 15.1109 7.92437C15.114 7.9937 15.1559 7.9905 15.1999 8.01824C15.225 8.05024 15.2418 8.0801 15.1978 8.13557C15.1559 8.1729 15.1276 8.19424 15.0857 8.23157C15.0679 8.2657 15.0543 8.3169 15.115 8.33397C15.225 8.36597 15.4796 8.19744 15.4796 8.1953C15.5215 8.1633 15.5069 8.1025 15.5037 8.1025C15.4786 8.07477 15.4241 8.09184 15.3885 8.0865C15.3707 8.0865 15.3151 8.07797 15.3403 8.02677C15.3633 7.99477 15.3717 7.97664 15.3874 7.93717C15.4031 7.89877 15.3874 7.87317 15.3267 7.85184C15.2952 7.84544 15.2743 7.8433 15.2502 7.84437H15.2523ZM13.7301 11.9617C14.0129 11.9756 14.2769 11.9649 14.5577 11.9788C14.6038 12.0172 14.5818 12.1068 14.5525 12.1217L14.5472 12.1238H14.5441H14.5399L14.3031 12.1174V12.1036C14.2801 12.0374 14.1229 12.0417 14.0852 12.0929V12.0961C14.0831 12.0961 14.0821 12.0993 14.0821 12.1004L14.08 12.1057V12.1185C13.9543 12.1345 13.8443 12.1142 13.7207 12.11C13.684 12.0641 13.6892 11.982 13.7311 11.9606L13.7301 11.9617Z" fill="white"/>
</g>
</svg>
