<svg width="105" height="32" viewBox="0 0 105 32" fill="none" xmlns="http://www.w3.org/2000/svg">
<g id="Group 1000011353">
<g id="Group">
<g id="Group_2">
<path id="Vector" d="M43.6919 25.3337C44.6713 25.3337 46.8939 25.0376 47.4431 24.4455C47.928 23.9285 48.1962 23.1958 48.2509 22.2486C46.9368 22.8408 45.4458 23.1368 43.7767 23.1368C42.4197 23.1368 41.1819 22.9427 40.062 22.5554C38.9421 22.1682 37.9788 21.6104 37.1711 20.8831C36.3633 20.1569 35.7358 19.2548 35.2896 18.1778C34.8423 17.1008 34.6191 15.8736 34.6191 14.4952C34.6191 13.1168 34.8423 11.9401 35.2896 10.8685C35.7358 9.79686 36.3633 8.89259 37.1711 8.15458C37.9788 7.41764 38.9421 6.85448 40.062 6.46616C41.1819 6.07892 42.4197 5.88477 43.7767 5.88477C45.1336 5.88477 46.3554 6.0757 47.4753 6.45865C48.5952 6.84053 49.5563 7.40155 50.3587 8.13849C51.1611 8.8765 51.7854 9.77755 52.2327 10.8438C52.68 11.9101 52.9031 13.1265 52.9031 14.4942V21.8764C52.9031 22.9534 52.7336 23.9521 52.3947 24.8724C52.0557 25.7928 51.5569 26.5877 50.9004 27.2549C50.2439 27.9221 49.433 28.4423 48.4697 28.8135C47.5054 29.1846 44.9416 29.3767 43.693 29.3874V25.3326L43.6919 25.3337ZM45.6174 18.8085C46.1774 18.5822 46.6483 18.2647 47.0312 17.856C47.4131 17.4473 47.7092 16.9571 47.9194 16.3864C48.1297 15.8157 48.2348 15.1861 48.2348 14.4963C48.2348 13.8066 48.1297 13.1447 47.9194 12.5741C47.7092 12.0034 47.4131 11.5185 47.0312 11.1206C46.6494 10.7226 46.1774 10.4126 45.6174 10.1916C45.0575 9.97064 44.4439 9.86015 43.7756 9.86015C43.1073 9.86015 42.497 9.97278 41.9424 10.1991C41.3878 10.4255 40.9137 10.7462 40.5211 11.1603C40.1274 11.5754 39.8206 12.0645 39.6007 12.6298C39.3797 13.1951 39.2692 13.8173 39.2692 14.4952C39.2692 15.1732 39.3797 15.8146 39.6007 16.3853C39.8217 16.956 40.1306 17.4462 40.5297 17.8549C40.9276 18.2647 41.4018 18.5822 41.951 18.8075C42.5002 19.0338 43.103 19.1464 43.7606 19.1464C44.4182 19.1464 45.0586 19.0338 45.6185 18.8075L45.6174 18.8085Z" fill="white"/>
<path id="Vector_2" d="M62.7872 22.6362C62.7335 23.4439 62.5769 24.2034 62.3184 24.9135C61.9848 25.8285 61.4838 26.6201 60.8166 27.2884C60.1601 27.9556 59.347 28.478 58.3773 28.8556C57.4301 29.2214 56.3317 29.4102 55.082 29.4209V25.4477C56.0507 25.4477 56.8101 25.1516 57.3593 24.5595C57.9086 23.9781 58.1832 23.1221 58.1832 21.9915V13.0742H56.5838V9.85938H62.8183V15.6905C62.8183 16.8211 63.0929 17.6825 63.6421 18.2746C64.1913 18.8667 64.9508 19.1628 65.9194 19.1628C66.4686 19.1628 66.9395 19.357 67.3332 19.7442C67.7258 20.1314 67.9232 20.6002 67.9232 21.1494C67.9232 21.6986 67.7269 22.1674 67.3332 22.5547C66.9395 22.9419 66.4686 23.1361 65.9194 23.1361H65.8711C64.7191 23.1253 63.6904 22.958 62.7861 22.6351L62.7872 22.6362Z" fill="white"/>
<path id="Vector_3" d="M77.0349 20.9872C76.2594 21.6651 75.339 22.1886 74.2728 22.5544C73.1421 22.9416 71.9032 23.1358 70.558 23.1358H65.9219V19.1464H70.558C71.236 19.1464 71.8506 19.0338 72.3998 18.8075C72.9598 18.5811 73.4339 18.2636 73.8212 17.8549C74.2084 17.4462 74.5045 16.956 74.7093 16.3853C74.925 15.8147 75.0322 15.185 75.0322 14.4952C75.0322 13.8055 74.925 13.1437 74.7093 12.573C74.5045 12.0023 74.2084 11.5175 73.8212 11.1195C73.4339 10.7215 72.9598 10.4083 72.3998 10.183C71.8506 9.96742 71.2371 9.86015 70.558 9.86015V10.8717H65.9219V6.8534C66.2233 6.71395 66.5355 6.58416 66.8583 6.46616C67.9782 6.07892 69.2107 5.88477 70.557 5.88477C71.9032 5.88477 73.1411 6.07356 74.2717 6.45007C75.3916 6.83731 76.3495 7.39833 77.1465 8.1299C77.9435 8.87328 78.5678 9.77755 79.0205 10.8438C79.4624 11.9101 79.6823 13.1265 79.6823 14.4942V15.6891C79.6823 16.8198 79.9569 17.6811 80.5062 18.2733C81.0554 18.8547 81.8202 19.1454 82.7996 19.1454C83.3488 19.1454 83.8175 19.3417 84.2048 19.7353C84.592 20.129 84.7862 20.5999 84.7862 21.1491C84.7862 21.6984 84.592 22.1671 84.2048 22.5544C83.8175 22.9416 83.3488 23.1358 82.7996 23.1358H82.7513C81.5241 23.125 80.4418 22.9362 79.5043 22.5704C78.5238 22.1939 77.7054 21.6715 77.0489 21.0032L77.0328 20.9872H77.0349Z" fill="white"/>
<path id="Vector_4" d="M85.903 14.4942C85.903 13.1479 86.1293 11.9422 86.5809 10.876C87.0229 9.80974 87.6472 8.90546 88.4549 8.16209C89.2734 7.42944 90.242 6.86413 91.3619 6.46616C92.4818 6.07892 93.7143 5.88477 95.0606 5.88477C96.4068 5.88477 97.6393 6.07892 98.7592 6.46616C99.8898 6.84375 100.853 7.40262 101.65 8.14599C102.447 8.87864 103.071 9.77755 103.524 10.8438C103.966 11.9208 104.186 13.1372 104.186 14.4942C104.186 15.8511 103.965 17.1008 103.524 18.1767C103.071 19.2537 102.447 20.158 101.65 20.8906C100.853 21.6125 99.8898 22.1671 98.7592 22.5544C97.6393 22.9416 96.4057 23.1358 95.0606 23.1358C93.7154 23.1358 92.4818 22.9416 91.3619 22.5544C90.2849 22.1886 89.3538 21.6662 88.5676 20.9872L88.5515 21.0032C87.8832 21.6715 87.0658 22.1929 86.0961 22.5704C85.1489 22.9362 84.0505 23.125 82.8008 23.1358V19.1625C83.7694 19.1625 84.5289 18.8665 85.0781 18.2743C85.6273 17.6929 85.9019 16.8369 85.9019 15.7063V14.4952L85.903 14.4942ZM96.9109 18.8075C97.4655 18.5811 97.9364 18.2636 98.3247 17.8549C98.712 17.4462 99.0113 16.956 99.2215 16.3853C99.4318 15.8147 99.5369 15.185 99.5369 14.4952C99.5369 13.8055 99.4296 13.1576 99.214 12.5816C98.9984 12.0055 98.6991 11.5185 98.3172 11.1195C97.9343 10.7215 97.4666 10.4115 96.912 10.1905C96.3574 9.96957 95.7406 9.85908 95.0627 9.85908C94.3848 9.85908 93.7969 9.97171 93.237 10.198C92.677 10.4244 92.2029 10.7473 91.8157 11.1667C91.4284 11.5872 91.1238 12.0763 90.9028 12.6363C90.6818 13.1962 90.5713 13.8152 90.5713 14.4942C90.5713 15.1732 90.6818 15.8136 90.9028 16.3842C91.1238 16.9549 91.4327 17.4451 91.8318 17.8538C92.2297 18.2636 92.7038 18.5811 93.2531 18.8064C93.8023 19.0316 94.4051 19.1454 95.0627 19.1454C95.7203 19.1454 96.3574 19.0327 96.912 18.8064L96.9109 18.8075Z" fill="white"/>
</g>
<path id="Vector_5" d="M17.6689 29.7426C17.684 29.7426 17.7 29.7426 17.7151 29.7448L17.7429 29.7469H17.7708C17.7708 29.7469 17.7816 29.7459 17.7869 29.7459C17.9982 29.7459 18.2364 29.896 18.3662 30.1117C18.423 30.2071 18.5046 30.3948 18.4059 30.5815L18.3887 30.6147L18.3769 30.6501C18.2847 30.9323 18.0004 31.0599 17.7741 31.0599C17.6625 31.0599 17.5016 31.032 17.3675 30.8969L17.3428 30.8722L17.3149 30.8518C17.0972 30.6941 17.0993 30.3948 17.1669 30.1867C17.2334 29.9819 17.4051 29.7426 17.67 29.7426M17.67 29.3136C16.7689 29.3136 16.3399 30.6748 17.0639 31.1994C17.2613 31.3978 17.5188 31.489 17.7751 31.489C18.2074 31.489 18.6397 31.2294 18.7856 30.7821C19.1364 30.1213 18.4745 29.3168 17.788 29.3168C17.7773 29.3168 17.7676 29.3168 17.7569 29.3168C17.7279 29.3136 17.699 29.3125 17.67 29.3125V29.3136Z" fill="#FBB03B"/>
<path id="Vector_6" d="M22.2547 29.7396C22.4403 29.7396 22.6366 29.8222 22.7674 29.9552C22.8339 30.0239 22.9133 30.1365 22.9101 30.2888V30.3264L22.9155 30.3639C22.9391 30.512 22.8833 30.6761 22.7642 30.8155C22.6355 30.9668 22.451 31.0601 22.2847 31.0601C22.2579 31.0601 22.2322 31.058 22.2064 31.0537L22.186 31.0504L22.1657 31.0483C21.8567 31.0236 21.6894 30.7555 21.64 30.5345C21.6164 30.4283 21.565 30.0679 21.8943 29.878L21.9243 29.8608L21.9511 29.8394C22.052 29.7568 22.1721 29.7396 22.2547 29.7396ZM22.2547 29.3105C22.0498 29.3105 21.8471 29.3706 21.6808 29.5058C20.8173 30.0024 21.1809 31.3991 22.1303 31.4763C22.1818 31.486 22.2332 31.4903 22.2847 31.4903C22.8769 31.4903 23.4336 30.8981 23.3392 30.2985C23.351 29.7257 22.7921 29.3116 22.2547 29.3116V29.3105Z" fill="#FBB03B"/>
<path id="Vector_7" d="M59.3443 4.70453C60.5457 3.72946 62.6889 4.70453 62.6557 6.28568C62.8595 7.58578 61.5315 8.86978 60.2421 8.63808C58.3467 8.48362 57.6194 5.6957 59.3443 4.70453Z" fill="white"/>
<path id="Vector_8" d="M70.2762 0.389957C71.4776 -0.585117 73.6208 0.389957 73.5876 1.9711C73.7914 3.2712 72.4634 4.55521 71.174 4.32351C69.2786 4.16904 68.5513 1.38112 70.2762 0.389957Z" fill="white"/>
<g id="Group_3">
<path id="Vector_9" d="M21.217 9.41843C21.4476 10.4482 22.25 11.1948 23.2154 11.2785C23.3248 11.2978 23.4385 11.3074 23.5501 11.3074C24.1969 11.3074 24.8598 10.9846 25.3222 10.4439C25.7598 9.93225 25.9593 9.29722 25.8714 8.69759C25.8767 8.17733 25.6676 7.67424 25.2793 7.27842C24.818 6.80751 24.1486 6.52539 23.49 6.52539C23.0105 6.52539 22.5729 6.67342 22.2221 6.95232C21.3843 7.44254 20.9906 8.40903 21.2159 9.41951L21.217 9.41843Z" fill="white"/>
<path id="Vector_10" d="M33.9906 1.39607C32.7173 1.39607 31.2906 1.62777 30.1117 2.30464C28.1562 3.32906 26.8389 5.41758 26.6577 7.60479C26.3659 11.0642 26.8282 14.5526 26.4431 18.0067C26.0409 21.6324 21.7984 24.2047 18.4216 22.7673C16.0305 21.9295 14.3389 19.473 14.4708 16.9383C14.4322 14.4099 16.2558 12.079 18.6189 11.3024C19.5093 11.0674 20.4307 11.0685 21.3479 11.0814C20.8287 10.721 20.4404 10.1514 20.287 9.46591C20.0413 8.36748 20.4704 7.3141 21.3811 6.77346C21.4122 6.74879 21.4455 6.72626 21.4787 6.70374C20.229 6.66726 18.9697 6.6619 17.7651 7.03305C13.6052 8.1347 10.2723 12.0575 10.1404 16.3987C9.89261 19.3025 11.0168 22.2277 13.0002 24.3377C15.4191 26.8392 19.1488 28.0288 22.5643 27.2908C26.4539 26.5303 29.776 23.3401 30.603 19.4505C31.193 15.5556 30.3499 11.5609 31.0493 7.67666C31.3357 6.27144 32.7033 5.46156 34.0131 5.46156L35.8581 5.40578V1.37891L33.9916 1.39607H33.9906Z" fill="#F9A51A"/>
</g>
<g id="Group_4">
<path id="Vector_11" d="M10.1838 11.8539C8.05878 11.648 5.08421 11.5922 2.16113 12.3184C2.16113 12.3184 6.28348 12.017 9.95958 12.3924C9.99927 12.1993 10.0733 12.0138 10.1848 11.8529L10.1838 11.8539Z" fill="#F9A51A"/>
<path id="Vector_12" d="M8.67865 15.9769C6.46247 15.816 3.55334 15.8257 0.691406 16.4908C0.691406 16.4908 4.76548 16.2129 8.57567 16.524C8.57782 16.3363 8.61214 16.1496 8.67972 15.9769H8.67865Z" fill="#F9A51A"/>
<path id="Vector_13" d="M8.64588 20.0979C6.27738 19.9231 3.11294 19.9156 0 20.5978C0 20.5978 4.54713 20.305 8.66947 20.6579C8.62871 20.4745 8.6212 20.2846 8.64588 20.0979Z" fill="#F9A51A"/>
</g>
</g>
<g id="Group_5">
<path id="Vector_14" d="M69.7472 26.0664H70.2481L70.8746 27.8117C70.9529 28.0348 71.028 28.2654 71.1063 28.4928H71.1266C71.205 28.2654 71.2736 28.0359 71.353 27.8117L71.9719 26.0664H72.4729V29.3338H72.0867V27.5349C72.0867 27.2507 72.1189 26.8581 72.1393 26.5684H72.1189L71.8593 27.3139L71.2436 29.0034H70.9679L70.3489 27.3139L70.0904 26.5684H70.07C70.0915 26.857 70.1226 27.2496 70.1226 27.5349V29.3338H69.7461V26.0664H69.7472Z" fill="#F9A51A"/>
<path id="Vector_15" d="M75.9796 28.956L76.1813 28.6889C76.37 28.8766 76.6082 29.0504 76.9815 29.0504C77.3548 29.0504 77.6755 28.7704 77.6755 28.3274C77.6755 27.8844 77.4084 27.6301 77.0019 27.6301C76.782 27.6301 76.6457 27.6977 76.4569 27.8232L76.2392 27.6848L76.3443 26.1562H77.933V26.5081H76.7037L76.62 27.451C76.7669 27.3705 76.9118 27.319 77.107 27.319C77.6487 27.319 78.0906 27.628 78.0906 28.3134C78.0906 28.9989 77.5725 29.3904 77.0222 29.3904C76.5106 29.3904 76.1995 29.1759 75.9785 28.9549L75.9796 28.956Z" fill="#F9A51A"/>
<path id="Vector_16" d="M81.4902 29.086L83.2108 26.4182H81.6447V26.0664H83.7246V26.3131L82.0041 28.9809H83.7407V29.3327H81.4902V29.086Z" fill="#F9A51A"/>
<path id="Vector_17" d="M87.0469 27.6878C87.0469 26.642 87.6229 26.0059 88.4435 26.0059C89.2641 26.0059 89.8402 26.643 89.8402 27.6878C89.8402 28.7326 89.2641 29.3923 88.4435 29.3923C87.6229 29.3923 87.0469 28.7337 87.0469 27.6878ZM89.41 27.6878C89.41 26.8737 89.026 26.3716 88.4435 26.3716C87.861 26.3716 87.476 26.8737 87.476 27.6878C87.476 28.502 87.86 29.0276 88.4435 29.0276C89.0271 29.0276 89.41 28.502 89.41 27.6878Z" fill="#F9A51A"/>
<path id="Vector_18" d="M93.4805 26.0664H93.9095L95.0916 28.1206L95.4446 28.7975H95.4649C95.4446 28.4682 95.4124 28.0992 95.4124 27.758V26.0675H95.8071V29.3349H95.3781L94.196 27.2796L93.843 26.6049H93.8227C93.8441 26.9353 93.8752 27.2839 93.8752 27.625V29.3349H93.4805V26.0675V26.0664Z" fill="#F9A51A"/>
</g>
</g>
</svg>
