<svg width="44" height="44" viewBox="0 0 44 44" fill="none" xmlns="http://www.w3.org/2000/svg">
<g clip-path="url(#clip0_249_3829)">
<path d="M21.8984 3.6228C26.82 3.6228 27.4341 3.64092 29.3651 3.73149C31.2943 3.82206 32.6076 4.12457 33.7633 4.57381C34.9589 5.03392 35.966 5.65705 36.9732 6.6624C37.8943 7.56793 38.607 8.6633 39.0618 9.87228C39.5092 11.0262 39.8135 12.3413 39.9041 14.2705C39.9892 16.2015 40.0128 16.8155 40.0128 21.7372C40.0128 26.6589 39.9947 27.273 39.9041 29.204C39.8135 31.1332 39.5092 32.4465 39.0618 33.6022C38.6083 34.8118 37.8954 35.9074 36.9732 36.812C36.0674 37.7328 34.9721 38.4455 33.7633 38.9006C32.6094 39.3481 31.2943 39.6524 29.3651 39.743C27.4341 39.8281 26.82 39.8516 21.8984 39.8516C16.9767 39.8516 16.3626 39.8335 14.4316 39.743C12.5024 39.6524 11.1891 39.3481 10.0334 38.9006C8.82396 38.4468 7.7284 37.734 6.82354 36.812C5.90225 35.9067 5.18949 34.8112 4.73494 33.6022C4.28571 32.4483 3.98319 31.1332 3.89262 29.204C3.80748 27.273 3.78394 26.6589 3.78394 21.7372C3.78394 16.8155 3.80205 16.2015 3.89262 14.2705C3.98319 12.3395 4.28571 11.028 4.73494 9.87228C5.18823 8.66256 5.90116 7.56689 6.82354 6.6624C7.72866 5.7408 8.82414 5.02799 10.0334 4.57381C11.1891 4.12457 12.5006 3.82206 14.4316 3.73149C16.3626 3.64635 16.9767 3.6228 21.8984 3.6228ZM21.8984 12.68C19.4962 12.68 17.1925 13.6343 15.4939 15.3328C13.7954 17.0314 12.8411 19.3351 12.8411 21.7372C12.8411 24.1393 13.7954 26.4431 15.4939 28.1416C17.1925 29.8402 19.4962 30.7944 21.8984 30.7944C24.3005 30.7944 26.6042 29.8402 28.3028 28.1416C30.0013 26.4431 30.9556 24.1393 30.9556 21.7372C30.9556 19.3351 30.0013 17.0314 28.3028 15.3328C26.6042 13.6343 24.3005 12.68 21.8984 12.68ZM33.6727 12.2272C33.6727 11.6266 33.4342 11.0507 33.0095 10.626C32.5849 10.2014 32.009 9.96285 31.4084 9.96285C30.8079 9.96285 30.232 10.2014 29.8073 10.626C29.3827 11.0507 29.1441 11.6266 29.1441 12.2272C29.1441 12.8277 29.3827 13.4036 29.8073 13.8283C30.232 14.2529 30.8079 14.4915 31.4084 14.4915C32.009 14.4915 32.5849 14.2529 33.0095 13.8283C33.4342 13.4036 33.6727 12.8277 33.6727 12.2272ZM21.8984 16.3029C23.3396 16.3029 24.7219 16.8754 25.741 17.8946C26.7601 18.9137 27.3327 20.2959 27.3327 21.7372C27.3327 23.1785 26.7601 24.5607 25.741 25.5799C24.7219 26.599 23.3396 27.1715 21.8984 27.1715C20.4571 27.1715 19.0748 26.599 18.0557 25.5799C17.0366 24.5607 16.464 23.1785 16.464 21.7372C16.464 20.2959 17.0366 18.9137 18.0557 17.8946C19.0748 16.8754 20.4571 16.3029 21.8984 16.3029Z" fill="white"/>
</g>
<defs>
<clipPath id="clip0_249_3829">
<rect width="43.4746" height="43.4746" fill="white" transform="translate(0.161133)"/>
</clipPath>
</defs>
</svg>
