<svg width="220" height="67" viewBox="0 0 220 67" fill="none" xmlns="http://www.w3.org/2000/svg">
<g id="Group">
<g id="Group_2">
<path id="Vector" d="M92.1823 53.4493C94.2486 53.4493 98.9379 52.8247 100.097 51.5754C101.12 50.4846 101.685 48.9388 101.801 46.9404C99.0284 48.1897 95.8826 48.8143 92.3611 48.8143C89.4982 48.8143 86.8865 48.4047 84.5237 47.5877C82.1609 46.7707 80.1286 45.5938 78.4244 44.0594C76.7202 42.5272 75.3963 40.6239 74.4548 38.3516C73.511 36.0794 73.0403 33.4903 73.0403 30.5821C73.0403 27.6739 73.511 25.1912 74.4548 22.9303C75.3963 20.6694 76.7202 18.7615 78.4244 17.2044C80.1286 15.6496 82.1609 14.4614 84.5237 13.6422C86.8865 12.8252 89.4982 12.4155 92.3611 12.4155C95.224 12.4155 97.8018 12.8184 100.165 13.6263C102.527 14.432 104.555 15.6157 106.248 17.1705C107.941 18.7276 109.258 20.6286 110.202 22.8782C111.146 25.1278 111.616 27.6943 111.616 30.5799V46.1551C111.616 48.4273 111.259 50.5344 110.544 52.4762C109.828 54.418 108.776 56.095 107.391 57.5027C106.006 58.9104 104.295 60.008 102.263 60.7911C100.228 61.5742 94.8189 61.9793 92.1846 62.0019V53.4471L92.1823 53.4493ZM96.2447 39.6824C97.4261 39.2048 98.4197 38.535 99.2276 37.6727C100.033 36.8104 100.658 35.7761 101.102 34.5721C101.545 33.3681 101.767 32.0396 101.767 30.5844C101.767 29.1292 101.545 27.7328 101.102 26.5288C100.658 25.3247 100.033 24.3018 99.2276 23.4621C98.4219 22.6225 97.4261 21.9684 96.2447 21.5022C95.0633 21.036 93.7688 20.8029 92.3588 20.8029C90.9489 20.8029 89.6611 21.0405 88.4911 21.5181C87.321 21.9956 86.3207 22.6723 85.4923 23.5459C84.6617 24.4217 84.0145 25.4537 83.5505 26.6464C83.0843 27.8391 82.8512 29.1518 82.8512 30.5821C82.8512 32.0124 83.0843 33.3658 83.5505 34.5698C84.0167 35.7739 84.6685 36.8081 85.5104 37.6704C86.3501 38.5349 87.3504 39.2049 88.5092 39.6801C89.6679 40.1577 90.9398 40.3953 92.3272 40.3953C93.7145 40.3953 95.0656 40.1577 96.247 39.6801L96.2447 39.6824Z" fill="white"/>
<path id="Vector_2" d="M132.47 47.7581C132.357 49.4623 132.026 51.0646 131.481 52.5628C130.777 54.4933 129.72 56.1635 128.312 57.5735C126.927 58.9812 125.212 60.0834 123.166 60.88C121.167 61.6518 118.85 62.0501 116.213 62.0727V53.6899C118.257 53.6899 119.859 53.0652 121.018 51.816C122.177 50.5893 122.756 48.7833 122.756 46.3979V27.584H119.382V20.8013H132.535V33.1039C132.535 35.4893 133.115 37.3067 134.274 38.556C135.432 39.8052 137.035 40.4299 139.078 40.4299C140.237 40.4299 141.231 40.8395 142.061 41.6565C142.89 42.4735 143.306 43.4625 143.306 44.6213C143.306 45.7801 142.892 46.7691 142.061 47.5861C141.231 48.4031 140.237 48.8127 139.078 48.8127H138.976C136.546 48.7901 134.375 48.437 132.468 47.7558L132.47 47.7581Z" fill="white"/>
<path id="Vector_3" d="M162.53 44.2789C160.894 45.7093 158.952 46.8137 156.702 47.5854C154.317 48.4024 151.703 48.8121 148.865 48.8121H139.083V40.3953H148.865C150.295 40.3953 151.592 40.1577 152.751 39.6801C153.932 39.2026 154.933 38.5327 155.75 37.6704C156.567 36.8081 157.191 35.7739 157.624 34.5699C158.078 33.3658 158.305 32.0373 158.305 30.5821C158.305 29.1269 158.078 27.7305 157.624 26.5265C157.191 25.3225 156.567 24.2995 155.75 23.4599C154.933 22.6202 153.932 21.9594 152.751 21.4841C151.592 21.0292 150.298 20.8029 148.865 20.8029V22.9371H139.083V14.4592C139.719 14.165 140.378 13.8911 141.059 13.6422C143.422 12.8252 146.022 12.4155 148.863 12.4155C151.703 12.4155 154.315 12.8138 156.7 13.6082C159.063 14.4252 161.084 15.6089 162.765 17.1524C164.447 18.7208 165.764 20.6286 166.719 22.8782C167.652 25.1278 168.116 27.6943 168.116 30.5799V33.101C168.116 35.4864 168.695 37.3038 169.854 38.5531C171.013 39.7797 172.626 40.393 174.692 40.393C175.851 40.393 176.84 40.8072 177.657 41.6378C178.474 42.4684 178.884 43.4619 178.884 44.6207C178.884 45.7794 178.474 46.7684 177.657 47.5854C176.84 48.4024 175.851 48.8121 174.692 48.8121H174.591C172.002 48.7894 169.718 48.3911 167.74 47.6194C165.671 46.825 163.945 45.7228 162.56 44.3129L162.526 44.2789H162.53Z" fill="white"/>
<path id="Vector_4" d="M181.24 30.5799C181.24 27.7396 181.718 25.1957 182.671 22.9461C183.603 20.6965 184.92 18.7887 186.624 17.2203C188.351 15.6745 190.395 14.4818 192.758 13.6422C195.12 12.8252 197.721 12.4155 200.561 12.4155C203.401 12.4155 206.002 12.8252 208.364 13.6422C210.75 14.4388 212.782 15.6179 214.464 17.1863C216.145 18.7321 217.462 20.6286 218.418 22.8782C219.35 25.1505 219.814 27.7169 219.814 30.5799C219.814 33.4428 219.348 36.0794 218.418 38.3494C217.462 40.6216 216.145 42.5295 214.464 44.0752C212.782 45.5984 210.75 46.7684 208.364 47.5854C206.002 48.4024 203.399 48.8121 200.561 48.8121C197.723 48.8121 195.12 48.4024 192.758 47.5854C190.485 46.8137 188.521 45.7115 186.862 44.2789L186.828 44.3129C185.418 45.7228 183.694 46.8227 181.648 47.6194C179.649 48.3911 177.332 48.7894 174.695 48.8121V40.4292C176.739 40.4292 178.341 39.8046 179.5 38.5553C180.659 37.3287 181.238 35.5227 181.238 33.1373V30.5821L181.24 30.5799ZM204.465 39.6801C205.635 39.2026 206.629 38.5327 207.448 37.6704C208.265 36.8081 208.896 35.7739 209.34 34.5699C209.784 33.3658 210.005 32.0373 210.005 30.5821C210.005 29.1269 209.779 27.7599 209.324 26.5446C208.869 25.3293 208.238 24.3018 207.432 23.4599C206.624 22.6202 205.637 21.9662 204.467 21.5C203.297 21.0337 201.996 20.8006 200.566 20.8006C199.135 20.8006 197.895 21.0383 196.714 21.5158C195.532 21.9933 194.532 22.6745 193.715 23.5595C192.898 24.4466 192.255 25.4786 191.789 26.66C191.323 27.8414 191.09 29.1473 191.09 30.5799C191.09 32.0125 191.323 33.3636 191.789 34.5676C192.255 35.7716 192.907 36.8059 193.749 37.6682C194.588 38.5327 195.589 39.2026 196.748 39.6779C197.906 40.1531 199.178 40.393 200.566 40.393C201.953 40.393 203.297 40.1554 204.467 39.6779L204.465 39.6801Z" fill="white"/>
</g>
<path id="Vector_5" d="M37.2782 62.7515C37.3099 62.7515 37.3438 62.7515 37.3755 62.7561L37.4344 62.7606H37.4932C37.4932 62.7606 37.5158 62.7583 37.5272 62.7583C37.973 62.7583 38.4754 63.0752 38.7493 63.5301C38.8692 63.7315 39.0412 64.1275 38.833 64.5213L38.7968 64.5915L38.7719 64.6662C38.5773 65.2614 37.9775 65.5307 37.5 65.5307C37.2646 65.5307 36.9252 65.4719 36.6423 65.1867L36.5902 65.1347L36.5314 65.0917C36.0719 64.759 36.0765 64.1275 36.219 63.6885C36.3594 63.2562 36.7215 62.7515 37.2805 62.7515M37.2805 61.8463C35.3794 61.8463 34.4741 64.7182 36.0018 65.8249C36.4182 66.2436 36.9614 66.436 37.5023 66.436C38.4143 66.436 39.3264 65.8883 39.6342 64.9446C40.3742 63.5504 38.9779 61.853 37.5294 61.853C37.5068 61.853 37.4864 61.853 37.4638 61.853C37.4027 61.8463 37.3416 61.844 37.2805 61.844V61.8463Z" fill="#FBB03B"/>
<path id="Vector_6" d="M46.9535 62.7451C47.345 62.7451 47.7591 62.9194 48.0353 63.2C48.1756 63.3449 48.343 63.5825 48.3363 63.9039V63.9831L48.3476 64.0623C48.3974 64.3746 48.2797 64.7209 48.0285 65.0151C47.7569 65.3342 47.3676 65.5311 47.0168 65.5311C46.9602 65.5311 46.9059 65.5266 46.8516 65.5175L46.8086 65.5107L46.7656 65.5062C46.1138 65.4542 45.7608 64.8884 45.6566 64.4221C45.6069 64.1981 45.4982 63.4377 46.193 63.0371L46.2564 63.0009L46.313 62.9556C46.5257 62.7813 46.7792 62.7451 46.9535 62.7451ZM46.9535 61.8398C46.5212 61.8398 46.0934 61.9666 45.7426 62.2517C43.9208 63.2996 44.688 66.2463 46.6909 66.4092C46.7996 66.4296 46.9082 66.4386 47.0168 66.4386C48.2661 66.4386 49.4407 65.1894 49.2415 63.9242C49.2664 62.7157 48.0873 61.8421 46.9535 61.8421V61.8398Z" fill="#FBB03B"/>
<path id="Vector_7" d="M125.206 9.92528C127.741 7.86804 132.262 9.92528 132.192 13.2612C132.622 16.0042 129.82 18.7132 127.1 18.2244C123.101 17.8985 121.567 12.0165 125.206 9.92528Z" fill="white"/>
<path id="Vector_8" d="M148.27 0.822497C150.805 -1.23474 155.327 0.822497 155.257 4.15843C155.687 6.90141 152.885 9.61045 150.165 9.1216C146.166 8.7957 144.631 2.91368 148.27 0.822497Z" fill="white"/>
<g id="Group_3">
<path id="Vector_9" d="M44.7639 19.8709C45.2505 22.0436 46.9434 23.6187 48.9803 23.7953C49.2111 23.836 49.451 23.8564 49.6864 23.8564C51.0511 23.8564 52.4497 23.1752 53.4252 22.0345C54.3485 20.955 54.7695 19.6152 54.5839 18.35C54.5952 17.2524 54.1539 16.191 53.3346 15.3558C52.3615 14.3623 50.9492 13.7671 49.5596 13.7671C48.548 13.7671 47.6246 14.0794 46.8846 14.6678C45.117 15.7021 44.2864 17.7412 44.7617 19.8732L44.7639 19.8709Z" fill="white"/>
<path id="Vector_10" d="M71.7141 2.94515C69.0277 2.94515 66.0176 3.43399 63.5304 4.86206C59.4046 7.02341 56.6254 11.4298 56.2429 16.0445C55.6273 23.3432 56.6028 30.7031 55.7903 37.9906C54.9416 45.6401 45.9907 51.0673 38.8662 48.0346C33.8215 46.267 30.2525 41.0843 30.5309 35.7364C30.4494 30.4021 34.2968 25.4842 39.2826 23.8457C41.1611 23.35 43.1051 23.3523 45.0401 23.3795C43.9448 22.619 43.1255 21.4173 42.8019 19.9711C42.2836 17.6536 43.1889 15.4311 45.1103 14.2905C45.1759 14.2384 45.2461 14.1909 45.3163 14.1434C42.6796 14.0664 40.0227 14.0551 37.4811 14.8382C28.7045 17.1625 21.6728 25.4389 21.3944 34.5981C20.8716 40.7245 23.2434 46.8962 27.428 51.3479C32.5315 56.6256 40.4006 59.1355 47.6066 57.5784C55.8129 55.9739 62.822 49.2431 64.5669 41.0368C65.8117 32.8192 64.0328 24.3911 65.5084 16.1961C66.1127 13.2313 68.9982 11.5226 71.7616 11.5226L75.6543 11.4049V2.90894L71.7163 2.94515H71.7141Z" fill="#F9A51A"/>
</g>
<g id="Group_4">
<path id="Vector_11" d="M21.4859 25.0096C17.0026 24.575 10.7268 24.4574 4.55957 25.9895C4.55957 25.9895 13.257 25.3536 21.0129 26.1457C21.0967 25.7383 21.2528 25.3468 21.4882 25.0073L21.4859 25.0096Z" fill="#F9A51A"/>
<path id="Vector_12" d="M18.3104 33.7082C13.6347 33.3687 7.49692 33.3891 1.45874 34.7923C1.45874 34.7923 10.0543 34.2061 18.0932 34.8624C18.0977 34.4664 18.1701 34.0726 18.3127 33.7082H18.3104Z" fill="#F9A51A"/>
<path id="Vector_13" d="M18.2413 42.4029C13.2442 42.034 6.56776 42.0182 0 43.4575C0 43.4575 9.59364 42.8397 18.2911 43.5843C18.2051 43.1973 18.1892 42.7967 18.2413 42.4029Z" fill="#F9A51A"/>
</g>
</g>
</svg>
