<svg width="44" height="44" viewBox="0 0 44 44" fill="none" xmlns="http://www.w3.org/2000/svg">
<g clip-path="url(#clip0_249_3833)">
<path d="M39.5072 11.7708C40.335 14.9988 40.335 21.7374 40.335 21.7374C40.335 21.7374 40.335 28.476 39.5072 31.7039C39.0471 33.4882 37.7012 34.8921 35.9966 35.3667C32.9009 36.2289 22.2206 36.2289 22.2206 36.2289C22.2206 36.2289 11.5458 36.2289 8.4446 35.3667C6.73279 34.8848 5.3887 33.4828 4.93403 31.7039C4.1062 28.476 4.1062 21.7374 4.1062 21.7374C4.1062 21.7374 4.1062 14.9988 4.93403 11.7708C5.39414 9.98656 6.74004 8.58269 8.4446 8.1081C11.5458 7.24585 22.2206 7.24585 22.2206 7.24585C22.2206 7.24585 32.9009 7.24585 35.9966 8.1081C37.7085 8.58994 39.0525 9.992 39.5072 11.7708ZM18.5977 28.0774L29.4664 21.7374L18.5977 15.3973V28.0774Z" fill="white"/>
</g>
<defs>
<clipPath id="clip0_249_3833">
<rect width="43.4746" height="43.4746" fill="white" transform="translate(0.483398)"/>
</clipPath>
</defs>
</svg>
