<svg width="23" height="23" viewBox="0 0 23 23" fill="none" xmlns="http://www.w3.org/2000/svg">
<g id="call 1">
<g id="help_x2C__message_x2C__request_x2C__call">
<g id="XMLID_4139_">
<g id="XMLID_4146_">
<g id="XMLID_4164_">
<path id="XMLID_4175_" d="M11.1406 14.0156V9.70312" stroke="white" stroke-width="0.71875" stroke-miterlimit="10" stroke-linecap="round" stroke-linejoin="round"/>
<path id="XMLID_4174_" d="M13.2969 14.0156H11.1406" stroke="white" stroke-width="0.71875" stroke-miterlimit="10" stroke-linecap="round" stroke-linejoin="round"/>
<path id="XMLID_4173_" d="M14.7344 14.0156V9.70312" stroke="white" stroke-width="0.71875" stroke-miterlimit="10" stroke-linecap="round" stroke-linejoin="round"/>
<path id="XMLID_4172_" d="M14.7344 11.8594H15.8125C16.4083 11.8594 16.8906 11.3771 16.8906 10.7812C16.8906 10.1854 16.4083 9.70312 15.8125 9.70312H14.7344" stroke="white" stroke-width="0.71875" stroke-miterlimit="10" stroke-linecap="round" stroke-linejoin="round"/>
<path id="XMLID_4171_" d="M7.54688 14.0156V9.70312" stroke="white" stroke-width="0.71875" stroke-miterlimit="10" stroke-linecap="round" stroke-linejoin="round"/>
<path id="XMLID_4170_" d="M9.70312 14.0156H7.54688" stroke="white" stroke-width="0.71875" stroke-miterlimit="10" stroke-linecap="round" stroke-linejoin="round"/>
<path id="XMLID_4169_" d="M9.70312 9.70312H7.54688" stroke="white" stroke-width="0.71875" stroke-miterlimit="10" stroke-linecap="round" stroke-linejoin="round"/>
<path id="XMLID_4168_" d="M8.98438 11.8594H7.54688" stroke="white" stroke-width="0.71875" stroke-miterlimit="10" stroke-linecap="round" stroke-linejoin="round"/>
<path id="XMLID_4167_" d="M3.95312 14.0156V9.70312" stroke="white" stroke-width="0.71875" stroke-miterlimit="10" stroke-linecap="round" stroke-linejoin="round"/>
<path id="XMLID_4166_" d="M6.10938 11.8594H3.95312" stroke="white" stroke-width="0.71875" stroke-miterlimit="10" stroke-linecap="round" stroke-linejoin="round"/>
<path id="XMLID_4165_" d="M6.10938 9.70312V14.0156" stroke="white" stroke-width="0.71875" stroke-miterlimit="10" stroke-linecap="round" stroke-linejoin="round"/>
</g>
<g id="XMLID_4147_">
<path id="XMLID_4163_" d="M11.1406 14.0156V9.70312" stroke="#455A64" stroke-width="0.71875" stroke-miterlimit="10" stroke-linecap="round" stroke-linejoin="round"/>
<path id="XMLID_4162_" d="M13.2969 14.0156H11.1406" stroke="#455A64" stroke-width="0.71875" stroke-miterlimit="10" stroke-linecap="round" stroke-linejoin="round"/>
<path id="XMLID_4159_" d="M14.7344 14.0156V9.70312" stroke="#455A64" stroke-width="0.71875" stroke-miterlimit="10" stroke-linecap="round" stroke-linejoin="round"/>
<path id="XMLID_4157_" d="M14.7344 11.8594H15.8125C16.4083 11.8594 16.8906 11.3771 16.8906 10.7812C16.8906 10.1854 16.4083 9.70312 15.8125 9.70312H14.7344" stroke="#455A64" stroke-width="0.71875" stroke-miterlimit="10" stroke-linecap="round" stroke-linejoin="round"/>
<path id="XMLID_4155_" d="M7.54688 14.0156V9.70312" stroke="#455A64" stroke-width="0.71875" stroke-miterlimit="10" stroke-linecap="round" stroke-linejoin="round"/>
<path id="XMLID_4154_" d="M9.70312 14.0156H7.54688" stroke="#455A64" stroke-width="0.71875" stroke-miterlimit="10" stroke-linecap="round" stroke-linejoin="round"/>
<path id="XMLID_4152_" d="M9.70312 9.70312H7.54688" stroke="#455A64" stroke-width="0.71875" stroke-miterlimit="10" stroke-linecap="round" stroke-linejoin="round"/>
<path id="XMLID_4151_" d="M8.98438 11.8594H7.54688" stroke="#455A64" stroke-width="0.71875" stroke-miterlimit="10" stroke-linecap="round" stroke-linejoin="round"/>
<path id="XMLID_4150_" d="M3.95312 14.0156V9.70312" stroke="#455A64" stroke-width="0.71875" stroke-miterlimit="10" stroke-linecap="round" stroke-linejoin="round"/>
<path id="XMLID_4149_" d="M6.10938 11.8594H3.95312" stroke="#455A64" stroke-width="0.71875" stroke-miterlimit="10" stroke-linecap="round" stroke-linejoin="round"/>
<path id="XMLID_4148_" d="M6.10938 9.70312V14.0156" stroke="#455A64" stroke-width="0.71875" stroke-miterlimit="10" stroke-linecap="round" stroke-linejoin="round"/>
</g>
</g>
<g id="XMLID_4140_">
<path id="XMLID_4145_" d="M21.2161 16.6908C21.6387 16.4407 21.9219 15.98 21.9219 15.4531V5.39062C21.9219 4.59713 21.2779 3.95312 20.4844 3.95312H8.98438V1.07812L6.82812 3.95312H5.39062" stroke="#455A64" stroke-width="0.71875" stroke-miterlimit="10" stroke-linecap="round" stroke-linejoin="round"/>
<path id="XMLID_4144_" d="M2.51562 18.3281H14.0156V21.2031L16.1719 18.3281H18.3281C19.1188 18.3281 19.7656 17.6813 19.7656 16.8906V6.82812C19.7656 6.0375 19.1188 5.39062 18.3281 5.39062H2.51562C1.725 5.39062 1.07812 6.0375 1.07812 6.82812V16.8906C1.07812 17.6813 1.725 18.3281 2.51562 18.3281Z" stroke="#455A64" stroke-width="0.71875" stroke-miterlimit="10" stroke-linecap="round" stroke-linejoin="round"/>
<g id="XMLID_4141_">
<g id="XMLID_4142_">
<path id="XMLID_4143_" d="M3.95469 3.95312H3.88281" stroke="#455A64" stroke-width="0.71875" stroke-miterlimit="10" stroke-linecap="round" stroke-linejoin="round"/>
</g>
</g>
</g>
</g>
<g id="XMLID_3181_">
<g id="XMLID_3188_">
<g id="XMLID_4127_">
<path id="XMLID_4138_" d="M11.1406 14.0156V9.70312" stroke="#263238" stroke-width="0.71875" stroke-miterlimit="10" stroke-linecap="round" stroke-linejoin="round"/>
<path id="XMLID_4137_" d="M13.2969 14.0156H11.1406" stroke="#263238" stroke-width="0.71875" stroke-miterlimit="10" stroke-linecap="round" stroke-linejoin="round"/>
<path id="XMLID_4136_" d="M14.7344 14.0156V9.70312" stroke="#263238" stroke-width="0.71875" stroke-miterlimit="10" stroke-linecap="round" stroke-linejoin="round"/>
<path id="XMLID_4135_" d="M14.7344 11.8594H15.8125C16.4083 11.8594 16.8906 11.3771 16.8906 10.7812C16.8906 10.1854 16.4083 9.70312 15.8125 9.70312H14.7344" stroke="#263238" stroke-width="0.71875" stroke-miterlimit="10" stroke-linecap="round" stroke-linejoin="round"/>
<path id="XMLID_4134_" d="M7.54688 14.0156V9.70312" stroke="#263238" stroke-width="0.71875" stroke-miterlimit="10" stroke-linecap="round" stroke-linejoin="round"/>
<path id="XMLID_4133_" d="M9.70312 14.0156H7.54688" stroke="#263238" stroke-width="0.71875" stroke-miterlimit="10" stroke-linecap="round" stroke-linejoin="round"/>
<path id="XMLID_4132_" d="M9.70312 9.70312H7.54688" stroke="#263238" stroke-width="0.71875" stroke-miterlimit="10" stroke-linecap="round" stroke-linejoin="round"/>
<path id="XMLID_4131_" d="M8.98438 11.8594H7.54688" stroke="#263238" stroke-width="0.71875" stroke-miterlimit="10" stroke-linecap="round" stroke-linejoin="round"/>
<path id="XMLID_4130_" d="M3.95312 14.0156V9.70312" stroke="#263238" stroke-width="0.71875" stroke-miterlimit="10" stroke-linecap="round" stroke-linejoin="round"/>
<path id="XMLID_4129_" d="M6.10938 11.8594H3.95312" stroke="#263238" stroke-width="0.71875" stroke-miterlimit="10" stroke-linecap="round" stroke-linejoin="round"/>
<path id="XMLID_4128_" d="M6.10938 9.70312V14.0156" stroke="#263238" stroke-width="0.71875" stroke-miterlimit="10" stroke-linecap="round" stroke-linejoin="round"/>
</g>
<g id="XMLID_4115_">
<path id="XMLID_4126_" d="M11.1406 14.0156V9.70312" stroke="#263238" stroke-width="0.71875" stroke-miterlimit="10" stroke-linecap="round" stroke-linejoin="round"/>
<path id="XMLID_4125_" d="M13.2969 14.0156H11.1406" stroke="#263238" stroke-width="0.71875" stroke-miterlimit="10" stroke-linecap="round" stroke-linejoin="round"/>
<path id="XMLID_4124_" d="M14.7344 14.0156V9.70312" stroke="#263238" stroke-width="0.71875" stroke-miterlimit="10" stroke-linecap="round" stroke-linejoin="round"/>
<path id="XMLID_4123_" d="M14.7344 11.8594H15.8125C16.4083 11.8594 16.8906 11.3771 16.8906 10.7812C16.8906 10.1854 16.4083 9.70312 15.8125 9.70312H14.7344" stroke="#263238" stroke-width="0.71875" stroke-miterlimit="10" stroke-linecap="round" stroke-linejoin="round"/>
<path id="XMLID_4122_" d="M7.54688 14.0156V9.70312" stroke="#263238" stroke-width="0.71875" stroke-miterlimit="10" stroke-linecap="round" stroke-linejoin="round"/>
<path id="XMLID_4121_" d="M9.70312 14.0156H7.54688" stroke="#263238" stroke-width="0.71875" stroke-miterlimit="10" stroke-linecap="round" stroke-linejoin="round"/>
<path id="XMLID_4120_" d="M9.70312 9.70312H7.54688" stroke="#263238" stroke-width="0.71875" stroke-miterlimit="10" stroke-linecap="round" stroke-linejoin="round"/>
<path id="XMLID_4119_" d="M8.98438 11.8594H7.54688" stroke="#263238" stroke-width="0.71875" stroke-miterlimit="10" stroke-linecap="round" stroke-linejoin="round"/>
<path id="XMLID_4118_" d="M3.95312 14.0156V9.70312" stroke="#263238" stroke-width="0.71875" stroke-miterlimit="10" stroke-linecap="round" stroke-linejoin="round"/>
<path id="XMLID_4117_" d="M6.10938 11.8594H3.95312" stroke="#263238" stroke-width="0.71875" stroke-miterlimit="10" stroke-linecap="round" stroke-linejoin="round"/>
<path id="XMLID_4116_" d="M6.10938 9.70312V14.0156" stroke="#263238" stroke-width="0.71875" stroke-miterlimit="10" stroke-linecap="round" stroke-linejoin="round"/>
</g>
<g id="XMLID_3189_">
<path id="XMLID_4114_" d="M11.1406 14.0156V9.70312" stroke="#263238" stroke-width="0.71875" stroke-miterlimit="10" stroke-linecap="round" stroke-linejoin="round"/>
<path id="XMLID_4113_" d="M13.2969 14.0156H11.1406" stroke="#263238" stroke-width="0.71875" stroke-miterlimit="10" stroke-linecap="round" stroke-linejoin="round"/>
<path id="XMLID_4112_" d="M14.7344 14.0156V9.70312" stroke="#263238" stroke-width="0.71875" stroke-miterlimit="10" stroke-linecap="round" stroke-linejoin="round"/>
<path id="XMLID_4111_" d="M14.7344 11.8594H15.8125C16.4083 11.8594 16.8906 11.3771 16.8906 10.7812C16.8906 10.1854 16.4083 9.70312 15.8125 9.70312H14.7344" stroke="#263238" stroke-width="0.71875" stroke-miterlimit="10" stroke-linecap="round" stroke-linejoin="round"/>
<path id="XMLID_4110_" d="M7.54688 14.0156V9.70312" stroke="#263238" stroke-width="0.71875" stroke-miterlimit="10" stroke-linecap="round" stroke-linejoin="round"/>
<path id="XMLID_3195_" d="M9.70312 14.0156H7.54688" stroke="#263238" stroke-width="0.71875" stroke-miterlimit="10" stroke-linecap="round" stroke-linejoin="round"/>
<path id="XMLID_3194_" d="M9.70312 9.70312H7.54688" stroke="#263238" stroke-width="0.71875" stroke-miterlimit="10" stroke-linecap="round" stroke-linejoin="round"/>
<path id="XMLID_3193_" d="M8.98438 11.8594H7.54688" stroke="#263238" stroke-width="0.71875" stroke-miterlimit="10" stroke-linecap="round" stroke-linejoin="round"/>
<path id="XMLID_3192_" d="M3.95312 14.0156V9.70312" stroke="#263238" stroke-width="0.71875" stroke-miterlimit="10" stroke-linecap="round" stroke-linejoin="round"/>
<path id="XMLID_3191_" d="M6.10938 11.8594H3.95312" stroke="#263238" stroke-width="0.71875" stroke-miterlimit="10" stroke-linecap="round" stroke-linejoin="round"/>
<path id="XMLID_3190_" d="M6.10938 9.70312V14.0156" stroke="#263238" stroke-width="0.71875" stroke-miterlimit="10" stroke-linecap="round" stroke-linejoin="round"/>
</g>
</g>
<g id="XMLID_3182_">
<path id="XMLID_3187_" d="M21.2161 16.6908C21.6387 16.4407 21.9219 15.98 21.9219 15.4531V5.39062C21.9219 4.59713 21.2779 3.95312 20.4844 3.95312H8.98438V1.07812L6.82812 3.95312H5.39062" stroke="#263238" stroke-width="0.71875" stroke-miterlimit="10" stroke-linecap="round" stroke-linejoin="round"/>
<path id="XMLID_3186_" d="M2.51562 18.3281H14.0156V21.2031L16.1719 18.3281H18.3281C19.1188 18.3281 19.7656 17.6813 19.7656 16.8906V6.82812C19.7656 6.0375 19.1188 5.39062 18.3281 5.39062H2.51562C1.725 5.39062 1.07812 6.0375 1.07812 6.82812V16.8906C1.07812 17.6813 1.725 18.3281 2.51562 18.3281Z" stroke="#263238" stroke-width="0.71875" stroke-miterlimit="10" stroke-linecap="round" stroke-linejoin="round"/>
<g id="XMLID_3183_">
<g id="XMLID_3184_">
<path id="XMLID_3185_" d="M3.95469 3.95312H3.88281" stroke="#263238" stroke-width="0.71875" stroke-miterlimit="10" stroke-linecap="round" stroke-linejoin="round"/>
</g>
</g>
</g>
</g>
</g>
</g>
</svg>
