<svg width="21" height="21" viewBox="0 0 21 21" fill="none" xmlns="http://www.w3.org/2000/svg">
<g id="online-chat" clip-path="url(#clip0_85_13712)">
<g id="Group">
<path id="Vector" d="M17.3407 6.63686H15.8137V5.00998C15.8137 4.07769 15.4629 3.18958 14.826 2.50934C14.7075 2.38285 14.509 2.37637 14.3826 2.49478C14.2562 2.61319 14.2496 2.81166 14.3681 2.93807C14.8957 3.50167 15.1864 4.23749 15.1864 5.00998V6.63686H8.80384C6.78608 6.63686 5.14451 8.27847 5.14451 10.2962V11.4183H4.65322C4.45778 11.4183 4.27399 11.4945 4.13573 11.6327L2.47099 13.2974V11.6228C2.47099 11.3662 2.33362 11.1251 2.11243 10.9936C1.19638 10.449 0.627293 9.44992 0.627293 8.38634V5.00998C0.627293 3.3381 1.98745 1.97794 3.65933 1.97794H12.1543C12.5462 1.97794 12.9273 2.05148 13.2872 2.19659C13.4479 2.26128 13.6306 2.18359 13.6954 2.02298C13.7602 1.86232 13.6824 1.67955 13.5218 1.61479C13.0871 1.43949 12.6269 1.35065 12.1543 1.35065H3.65933C1.64157 1.35065 0 2.99222 0 5.00998V8.38634C0 9.67005 0.686602 10.8757 1.79185 11.5328C1.82384 11.5518 1.84369 11.5863 1.84369 11.6228V13.4489C1.84369 13.6781 1.98048 13.8828 2.1922 13.9705C2.3335 14.0384 2.62201 14.0286 2.80748 13.8481L4.57927 12.0763C4.59904 12.0565 4.62529 12.0457 4.65322 12.0457H5.14451V13.6726C5.14451 14.1665 5.2413 14.6457 5.43219 15.0971C5.49966 15.2566 5.6837 15.3311 5.84325 15.2638C6.0028 15.1963 6.07741 15.0123 6.00998 14.8527C5.85199 14.4791 5.77184 14.0821 5.77184 13.6726V10.2963C5.77184 8.62436 7.132 7.2642 8.80388 7.2642H17.3407C19.0125 7.2642 20.3727 8.62436 20.3727 10.2963V13.6726C20.3727 14.7403 19.8267 15.7094 18.9122 16.265C18.6967 16.396 18.5628 16.635 18.5628 16.8887V18.9344L16.5473 16.9189C16.4091 16.7807 16.2253 16.7046 16.0299 16.7046H8.80384C8.04296 16.7046 7.31538 16.4216 6.75507 15.9077C6.62743 15.7907 6.42904 15.7993 6.31189 15.9269C6.1948 16.0546 6.20337 16.253 6.33105 16.3701C7.00736 16.9904 7.8855 17.3319 8.8038 17.3319H16.0298C16.0573 17.3319 16.0842 17.3431 16.1037 17.3626L18.2262 19.4851C18.3901 19.611 18.5503 19.7084 18.8414 19.6074C19.0532 19.5197 19.1899 19.315 19.1899 19.0858V16.8887C19.1899 16.8526 19.2083 16.819 19.2378 16.8011C20.3413 16.1308 21 14.9613 21 13.6726V10.2962C21 8.27847 19.3584 6.63686 17.3407 6.63686Z" fill="#084384"/>
<path id="Vector_2" d="M12.1868 14.117C12.0029 13.8571 11.6679 13.6829 11.2857 13.6829C10.7063 13.6829 10.2349 14.0834 10.2349 14.5757C10.2349 15.068 10.7063 15.4685 11.2857 15.4685C11.7941 15.4685 12.2193 15.1601 12.3159 14.7519C12.7785 14.557 13.1427 14.1687 13.3008 13.6775C13.7589 13.5732 14.1019 13.1629 14.1019 12.6736V11.5426C14.1019 11.0703 13.7822 10.6716 13.3479 10.5507C13.2457 9.92071 12.9361 9.34268 12.4615 8.90582C11.932 8.41835 11.2438 8.1499 10.5236 8.1499C9.10647 8.1499 7.92116 9.17066 7.69897 10.5507C7.26487 10.6717 6.94531 11.0704 6.94531 11.5426V12.6736C6.94531 13.2414 7.40727 13.7034 7.97509 13.7034C8.54291 13.7034 9.00487 13.2414 9.00487 12.6736V11.5426C9.00487 11.0998 8.72395 10.7215 8.33102 10.5763C8.53438 9.53713 9.44275 8.77719 10.5236 8.77719C11.5907 8.77719 12.5106 9.55042 12.7153 10.5766C12.3228 10.722 12.0423 11.1001 12.0423 11.5426V12.6736C12.0423 13.0921 12.2934 13.4529 12.6528 13.6138C12.5531 13.8281 12.3891 14.0031 12.1868 14.117ZM11.2857 14.8412C11.0361 14.8412 10.8622 14.7013 10.8622 14.5757C10.8622 14.4501 11.0361 14.3102 11.2857 14.3102C11.5353 14.3102 11.7092 14.4501 11.7092 14.5757C11.7092 14.7013 11.5352 14.8412 11.2857 14.8412ZM8.37758 12.6737C8.37758 12.8956 8.19703 13.0762 7.97509 13.0762C7.75316 13.0762 7.57261 12.8956 7.57261 12.6737V11.5427C7.57261 11.3207 7.75316 11.1402 7.97509 11.1402C8.19703 11.1402 8.37758 11.3207 8.37758 11.5427V12.6737ZM12.6696 11.5427C12.6696 11.3207 12.8502 11.1402 13.0721 11.1402C13.294 11.1402 13.4746 11.3207 13.4746 11.5427V12.6737C13.4746 12.8956 13.294 13.0762 13.0721 13.0762C12.8502 13.0762 12.6696 12.8956 12.6696 12.6737V11.5427Z" fill="#084384"/>
<path id="Vector_3" d="M14.9172 9.92753H17.4155C17.5887 9.92753 17.7291 9.78713 17.7291 9.61388C17.7291 9.44063 17.5887 9.30023 17.4155 9.30023H14.9172C14.744 9.30023 14.6035 9.44063 14.6035 9.61388C14.6035 9.78713 14.744 9.92753 14.9172 9.92753Z" fill="#084384"/>
<path id="Vector_4" d="M14.9172 11.3316H16.8435C17.0168 11.3316 17.1572 11.1912 17.1572 11.018C17.1572 10.8447 17.0168 10.7043 16.8435 10.7043H14.9172C14.744 10.7043 14.6035 10.8447 14.6035 11.018C14.6035 11.1912 14.744 11.3316 14.9172 11.3316Z" fill="#084384"/>
<path id="Vector_5" d="M3.08481 5.92077C3.34307 5.92077 3.55243 5.71141 3.55243 5.45315C3.55243 5.19489 3.34307 4.98553 3.08481 4.98553C2.82655 4.98553 2.61719 5.19489 2.61719 5.45315C2.61719 5.71141 2.82655 5.92077 3.08481 5.92077Z" fill="#084384"/>
<path id="Vector_6" d="M4.50278 5.92077C4.76103 5.92077 4.97039 5.71141 4.97039 5.45315C4.97039 5.19489 4.76103 4.98553 4.50278 4.98553C4.24452 4.98553 4.03516 5.19489 4.03516 5.45315C4.03516 5.71141 4.24452 5.92077 4.50278 5.92077Z" fill="#084384"/>
<path id="Vector_7" d="M5.90903 5.92077C6.16728 5.92077 6.37664 5.71141 6.37664 5.45315C6.37664 5.19489 6.16728 4.98553 5.90903 4.98553C5.65077 4.98553 5.44141 5.19489 5.44141 5.45315C5.44141 5.71141 5.65077 5.92077 5.90903 5.92077Z" fill="#084384"/>
</g>
</g>
<defs>
<clipPath id="clip0_85_13712">
<rect width="21" height="21" fill="white"/>
</clipPath>
</defs>
</svg>
